<svg width="35" height="35" viewBox="0 0 35 35" fill="none" xmlns="http://www.w3.org/2000/svg">
<path d="M17.9271 7.71879C18.4966 7.14928 19.4199 7.14928 19.9894 7.71879L28.7394 16.4688C29.0129 16.7423 29.1666 17.1132 29.1666 17.5C29.1666 17.8868 29.0129 18.2577 28.7394 18.5312L19.9894 27.2812C19.4199 27.8507 18.4966 27.8507 17.9271 27.2812C17.3575 26.7117 17.3575 25.7883 17.9271 25.2188L24.1875 18.9583L7.29159 18.9583C6.48617 18.9583 5.83325 18.3054 5.83325 17.5C5.83325 16.6946 6.48617 16.0417 7.29159 16.0417H24.1875L17.9271 9.78119C17.3575 9.21167 17.3575 8.28831 17.9271 7.71879Z" fill="#0D0D0D"/>
</svg>
