<?xml version="1.0" encoding="utf-8"?>
<!-- Generator: Adobe Illustrator 25.0.0, SVG Export Plug-In . SVG Version: 6.00 Build 0)  -->
<svg version="1.1" id="Capa_1" xmlns="http://www.w3.org/2000/svg" xmlns:xlink="http://www.w3.org/1999/xlink" x="0px" y="0px"
	 viewBox="0 0 416 416" style="enable-background:new 0 0 416 416;" xml:space="preserve">
<style type="text/css">
	.st0{fill:#A52016;}
	.st1{fill:#FFFFFF;}
	.st2{fill:none;stroke:#FFFFFF;stroke-width:16;stroke-miterlimit:10;}
</style>
<circle class="st0" cx="208" cy="208" r="203.8"/>
<path class="st1" d="M213.2,179.2l41.3,41.3c2.8,2.8,2.9,7.4,0.1,10.2l-0.1,0.1l-1.7,1.5c-2.8,2.8-7.4,2.9-10.2,0.1l0,0l-0.1-0.1
	L208,196.2l-34.6,36.1c-2.8,2.9-7.4,2.9-10.3,0.1l0,0l-0.1-0.1l-1.5-1.4c-2.8-2.8-2.9-7.4-0.1-10.2l0.1-0.1l41.3-41.3
	C205.7,176.5,210.3,176.5,213.2,179.2z"/>
<circle class="st2" cx="208" cy="208" r="99.6"/>
</svg>
