<svg width="23" height="22" viewBox="0 0 23 22" fill="none" xmlns="http://www.w3.org/2000/svg">
<path fill-rule="evenodd" clip-rule="evenodd" d="M7.11279 0H15.3628C19.1592 0 22.2378 3.07862 22.2378 6.875V15.125C22.2378 18.9214 19.1592 22 15.3628 22H7.11279C3.31642 22 0.237793 18.9214 0.237793 15.125V6.875C0.237793 3.07862 3.31642 0 7.11279 0ZM15.3627 19.9375C18.0165 19.9375 20.1752 17.7787 20.1752 15.125V6.875C20.1752 4.22125 18.0165 2.0625 15.3627 2.0625H7.11275C4.45901 2.0625 2.30026 4.22125 2.30026 6.875V15.125C2.30026 17.7787 4.45901 19.9375 7.11275 19.9375H15.3627Z" fill="white"/>
<path fill-rule="evenodd" clip-rule="evenodd" d="M5.7377 11C5.7377 7.96263 8.20034 5.5 11.2377 5.5C14.2751 5.5 16.7378 7.96263 16.7378 11C16.7378 14.0374 14.2751 16.5 11.2377 16.5C8.20034 16.5 5.7377 14.0374 5.7377 11ZM7.8004 11C7.8004 12.8948 9.34313 14.4375 11.2378 14.4375C13.1326 14.4375 14.6753 12.8948 14.6753 11C14.6753 9.10388 13.1326 7.5625 11.2378 7.5625C9.34313 7.5625 7.8004 9.10388 7.8004 11Z" fill="white"/>
<ellipse cx="17.1503" cy="5.08761" rx="0.732902" ry="0.732875" fill="white"/>
</svg>
