<?xml version="1.0" encoding="utf-8"?>
<!-- Generator: Adobe Illustrator 25.0.0, SVG Export Plug-In . SVG Version: 6.00 Build 0)  -->
<svg version="1.1" id="Capa_1" xmlns="http://www.w3.org/2000/svg" xmlns:xlink="http://www.w3.org/1999/xlink" x="0px" y="0px"
	 viewBox="0 0 50 50" style="enable-background:new 0 0 50 50;" xml:space="preserve">
<style type="text/css">
	.st0{fill:#A52016;}
</style>
<path class="st0" d="M31,25.8c-0.6,0-1.1,0.5-1.1,1c0,0.6,0.5,1.1,1.1,1.1c0.5,0,1-0.5,1-1.1C32,26.2,31.5,25.8,31,25.8z M31,25.8
	c-0.6,0-1.1,0.5-1.1,1c0,0.6,0.5,1.1,1.1,1.1c0.5,0,1-0.5,1-1.1C32,26.2,31.5,25.8,31,25.8z M31,25.8c-0.6,0-1.1,0.5-1.1,1
	c0,0.6,0.5,1.1,1.1,1.1c0.5,0,1-0.5,1-1.1C32,26.2,31.5,25.8,31,25.8z M31,25.8c-0.6,0-1.1,0.5-1.1,1c0,0.6,0.5,1.1,1.1,1.1
	c0.5,0,1-0.5,1-1.1C32,26.2,31.5,25.8,31,25.8z M38.2,41.3V7H11.1v34.4H8v2.1h33.4v-2.1L38.2,41.3L38.2,41.3z M36.2,41.3H13.2V9.1
	h22.9V41.3z M31,27.9c0.6,0,1-0.5,1-1.1c0-0.6-0.5-1-1-1c-0.6,0-1.1,0.5-1.1,1C29.9,27.4,30.4,27.9,31,27.9z M31,25.8
	c-0.6,0-1.1,0.5-1.1,1c0,0.6,0.5,1.1,1.1,1.1c0.5,0,1-0.5,1-1.1C32,26.2,31.5,25.8,31,25.8z M31,25.8c-0.6,0-1.1,0.5-1.1,1
	c0,0.6,0.5,1.1,1.1,1.1c0.5,0,1-0.5,1-1.1C32,26.2,31.5,25.8,31,25.8z"/>
</svg>
