<svg width="50" height="50" viewBox="0 0 50 50" fill="none" xmlns="http://www.w3.org/2000/svg">
<path d="M30.95 25.75C30.35 25.75 29.9 26.25 29.9 26.8C29.9 27.4 30.4 27.85 30.95 27.85C31.5 27.85 32 27.35 32 26.8C32 26.25 31.55 25.75 30.95 25.75ZM30.95 25.75C30.35 25.75 29.9 26.25 29.9 26.8C29.9 27.4 30.4 27.85 30.95 27.85C31.5 27.85 32 27.35 32 26.8C32 26.25 31.55 25.75 30.95 25.75ZM30.95 25.75C30.35 25.75 29.9 26.25 29.9 26.8C29.9 27.4 30.4 27.85 30.95 27.85C31.5 27.85 32 27.35 32 26.8C32 26.25 31.55 25.75 30.95 25.75ZM30.95 25.75C30.35 25.75 29.9 26.25 29.9 26.8C29.9 27.4 30.4 27.85 30.95 27.85C31.5 27.85 32 27.35 32 26.8C32 26.25 31.55 25.75 30.95 25.75ZM38.25 41.35V7H11.15V41.4H8V43.5H41.4V41.4H38.25V41.35ZM36.15 41.35H13.25V9.15H36.15V41.35ZM30.95 27.85C31.55 27.85 32 27.35 32 26.8C32 26.2 31.5 25.75 30.95 25.75C30.4 25.75 29.9 26.25 29.9 26.8C29.9 27.4 30.35 27.85 30.95 27.85ZM30.95 25.75C30.35 25.75 29.9 26.25 29.9 26.8C29.9 27.4 30.4 27.85 30.95 27.85C31.5 27.85 32 27.35 32 26.8C32 26.25 31.55 25.75 30.95 25.75ZM30.95 25.75C30.35 25.75 29.9 26.25 29.9 26.8C29.9 27.4 30.4 27.85 30.95 27.85C31.5 27.85 32 27.35 32 26.8C32 26.25 31.55 25.75 30.95 25.75Z" fill="#876671"/>
</svg>
