<?xml version="1.0" encoding="utf-8"?>
<!-- Generator: Adobe Illustrator 25.0.0, SVG Export Plug-In . SVG Version: 6.00 Build 0)  -->
<svg version="1.1" id="Capa_1" xmlns="http://www.w3.org/2000/svg" xmlns:xlink="http://www.w3.org/1999/xlink" x="0px" y="0px"
	 viewBox="0 0 50 50" style="enable-background:new 0 0 50 50;" xml:space="preserve">
<style type="text/css">
	.st0{fill:#A52016;}
</style>
<path class="st0" d="M42.2,8.3H7.8c-2.3,0-4.2,1.9-4.2,4.2v8.6c0,0.6,0.2,1.2,0.4,1.6l0,0L4.1,23l1.8,3.8c0,0.1,0.1,0.1,0.1,0.2
	c0.7,1.4,2.1,2.3,3.7,2.3h3.9v-2.1H9.7c-0.9,0-1.6-0.4-1.8-1.1l-0.1-0.1l-1.4-2.9h37.3L42.1,26c-0.3,0.7-0.9,1.1-1.8,1.1h-3.9v2.1
	h3.9c1.6,0,3-0.9,3.7-2.3l0.1-0.3h0.1l1.8-3.9c0.2-0.4,0.3-0.9,0.3-1.6v-8.7C46.4,10.2,44.5,8.3,42.2,8.3z M44.2,20.8H5.7v-8.3
	c0-1.1,0.9-2,2.1-2h34.4c1.1,0,2,0.9,2,2V20.8z M18.7,27.1c-0.6,0-1.1,0.5-1.1,1.1c0,0.5,0.5,1,1.1,1c0.5,0,1-0.5,1-1
	C19.8,27.6,19.3,27.1,18.7,27.1z M25,27.1c-0.6,0-1.1,0.5-1.1,1.1c0,0.5,0.5,1,1.1,1c0.5,0,1-0.5,1-1C26,27.6,25.6,27.1,25,27.1z
	 M31.2,27.1c-0.6,0-1.1,0.5-1.1,1.1c0,0.5,0.5,1,1.1,1c0.5,0,1-0.5,1-1C32.3,27.6,31.8,27.1,31.2,27.1z M17.2,31.8c-0.6,0-1,0.5-1,1
	c0,0.6,0.5,1,1,1c0.6,0,1.1-0.5,1.1-1S17.7,31.8,17.2,31.8z M25,31.8c-0.6,0-1.1,0.5-1.1,1c0,0.6,0.5,1,1.1,1c0.5,0,1-0.5,1-1
	S25.6,31.8,25,31.8z M32.8,31.8c-0.6,0-1,0.5-1,1c0,0.6,0.5,1,1,1c0.6,0,1-0.5,1-1C33.9,32.3,33.4,31.8,32.8,31.8z M15.6,36.5
	c-0.6,0-1.1,0.5-1.1,1s0.5,1,1.1,1s1.1-0.5,1.1-1S16.2,36.5,15.6,36.5z M25,36.5c-0.6,0-1.1,0.5-1.1,1s0.5,1,1.1,1c0.5,0,1-0.5,1-1
	S25.6,36.5,25,36.5z M34.4,36.5c-0.6,0-1,0.5-1,1s0.5,1,1,1c0.6,0,1.1-0.5,1.1-1S34.9,36.5,34.4,36.5z M12.5,41.1
	c-0.6,0-1.1,0.5-1.1,1c0,0.6,0.5,1.1,1.1,1.1s1.1-0.5,1.1-1.1C13.5,41.6,13.1,41.1,12.5,41.1z M25,41.1c-0.6,0-1.1,0.5-1.1,1
	c0,0.6,0.5,1.1,1.1,1.1c0.5,0,1-0.5,1-1.1C26,41.6,25.6,41.1,25,41.1z M37.5,41.1c-0.6,0-1,0.5-1,1c0,0.6,0.5,1.1,1,1.1s1-0.5,1-1.1
	C38.5,41.6,38.1,41.1,37.5,41.1z"/>
</svg>
