<svg width="50" height="50" viewBox="0 0 50 50" fill="none" xmlns="http://www.w3.org/2000/svg">
<path d="M43.6997 31.9005C43.0997 30.0005 41.1497 28.8505 39.1997 29.2005H39.1497L30.3497 30.6505L29.9997 30.3505C29.9497 30.3505 29.9497 30.3005 29.8997 30.2505L29.4497 30.0005C29.3997 29.9505 29.3497 29.9005 29.2997 29.9005C29.2497 29.8505 29.1997 29.8005 29.0997 29.7505C28.4997 29.3505 27.4997 28.7005 26.1497 28.0505C24.2497 27.1005 21.4497 25.8005 18.8497 25.8005C14.9997 25.7505 9.99971 27.5005 8.19971 28.1505L8.79971 29.7005C10.6497 29.0505 15.6997 27.3505 18.8497 27.3505C20.6997 27.3505 23.4997 28.4505 25.3997 29.4005C26.3497 29.9005 27.3497 30.4505 28.1497 31.0005C28.4997 31.2505 28.7997 31.4505 29.0497 31.6005L29.1497 31.7005C29.2497 31.7505 29.2997 31.8505 29.3997 31.9505L29.5497 32.2005C29.8997 32.8505 29.8497 33.6005 29.4497 34.2005C28.9497 34.9005 28.0997 35.2005 27.2497 34.9005L27.1497 35.0005L21.0497 32.1005L20.3497 33.5505L26.6997 36.5505C28.1497 37.0505 29.7997 36.5505 30.7497 35.3005L30.7997 35.2505C31.2997 34.5505 31.4997 33.7005 31.3997 32.8505L31.2997 32.1505L39.4997 30.7505C40.6497 30.6005 41.7497 31.2505 42.1497 32.4005C42.5497 33.6005 41.9997 34.9005 40.8497 35.4005C38.4497 36.4505 34.6997 37.9505 31.4997 39.1505C29.7497 39.8005 28.1997 40.3505 27.0497 40.7505C26.4497 40.9505 25.8997 41.1005 25.4997 41.2005H25.4497V41.3505H24.7997C24.6497 41.3505 24.4997 41.3005 24.3497 41.2505C24.0997 41.1505 23.6497 41.0005 23.1497 40.7505C22.3497 40.3505 21.3997 39.7005 20.5497 39.1505C19.6497 38.5505 18.6997 37.9505 17.7997 37.5005C16.8997 37.0505 16.2497 36.6505 15.3497 36.6505C13.7997 36.6505 12.3497 37.0505 11.4997 37.3005L12.0997 38.8005C12.6997 38.6005 13.6997 38.3505 14.6497 38.2505V38.2005H15.2997V38.9505L15.5497 38.2505C15.7997 38.3005 16.3497 38.5005 16.9997 38.8505C17.7497 39.2505 18.6497 39.8005 19.5997 40.4505L19.7997 40.6005C20.6497 41.1505 21.4997 41.6505 22.2997 42.1005L22.3997 42.1505C23.1997 42.6005 23.8497 42.9505 24.7497 42.9505C25.1497 42.9505 25.3497 42.9005 25.7497 42.8005L25.8997 42.7505C26.3497 42.6505 26.8997 42.5005 27.5497 42.2505C28.7497 41.8505 30.2997 41.3005 32.0497 40.6505C35.3497 39.4005 39.0497 37.9005 41.4997 36.8505C43.3997 36.0505 44.3497 33.8505 43.6997 31.9005ZM40.2997 10.2005C40.2997 10.2005 37.1997 10.0505 34.2997 11.5005L33.4497 11.9005L33.1997 11.0005C32.3997 7.85054 30.2497 5.65054 30.2497 5.65054L29.6997 5.05054L29.0997 5.65054C29.0997 5.65054 26.9497 7.85054 26.1497 11.0005L25.8997 11.9005L25.0997 11.5005C22.1997 10.0505 19.1497 10.1505 19.1497 10.2005L18.3497 10.2505L18.3997 11.0505C18.3997 11.1005 18.5997 15.7505 21.8497 18.6005C24.0997 20.6005 26.4997 20.9505 28.0997 21.0005L28.7997 21.0505V21.1005L29.5997 21.1505C29.6497 21.1505 29.6997 21.1505 29.6997 21.1505C29.6997 21.1505 29.7497 21.1505 29.7997 21.1505L31.3497 21.0505C32.9497 21.0005 35.3497 20.6505 37.5997 18.6505C40.8497 15.8005 41.0997 11.1505 41.0997 11.1005L41.1497 10.2505L40.2997 10.2005ZM27.6497 19.3005C26.3497 19.1005 24.4497 18.7505 22.8997 17.3505C21.3497 15.9505 20.7497 14.1505 20.3997 12.8505L20.1497 11.8005L21.2497 11.9505C22.5497 12.1505 24.4497 12.5005 25.9997 13.9005L26.2497 14.1505C27.6497 15.5005 28.1997 17.2005 28.4997 18.4005L28.7497 19.5005L27.6497 19.3005ZM29.6997 16.5005L29.0497 15.3005C28.6997 14.7005 28.1997 14.1005 27.6497 13.5005L27.4497 13.2505V12.9505C27.5497 11.4005 28.0997 9.90054 29.0497 8.45054L29.6497 7.50054L30.2497 8.45054C31.2497 9.90054 31.7497 11.4505 31.8497 12.9505V13.2505L31.7497 13.5005C31.2497 14.0505 30.6997 14.6505 30.3997 15.2505L29.6997 16.5005ZM38.9997 12.9505C38.6497 14.2005 38.0497 16.0505 36.4997 17.4005C34.9497 18.8005 33.0497 19.1505 31.7497 19.3505L30.6497 19.5005L30.9497 18.4005C31.2997 17.1505 31.8997 15.3005 33.4497 13.9505C34.9997 12.5505 36.8997 12.2005 38.1997 12.0505L39.2997 11.9005L38.9997 12.9505Z" fill="#876671"/>
</svg>
