<?xml version="1.0" encoding="utf-8"?>
<!-- Generator: Adobe Illustrator 25.0.0, SVG Export Plug-In . SVG Version: 6.00 Build 0)  -->
<svg version="1.1" id="Capa_1" xmlns="http://www.w3.org/2000/svg" xmlns:xlink="http://www.w3.org/1999/xlink" x="0px" y="0px"
	 viewBox="0 0 50 50" style="enable-background:new 0 0 50 50;" xml:space="preserve">
<style type="text/css">
	.st0{fill:#A52016;}
</style>
<path class="st0" d="M43.7,31.9c-0.6-1.9-2.5-3-4.5-2.7h0l-8.8,1.4L30,30.4c-0.1,0-0.1,0-0.1-0.1L29.4,30c0,0-0.1-0.1-0.1-0.1
	c0,0-0.1-0.1-0.2-0.1c-0.6-0.4-1.6-1-3-1.7c-1.9-1-4.7-2.2-7.3-2.2C15,25.8,10,27.5,8.2,28.2l0.6,1.6c1.8-0.6,6.9-2.4,10-2.4
	c1.8,0,4.6,1.1,6.5,2c1,0.5,2,1.1,2.8,1.6c0.4,0.2,0.6,0.5,0.9,0.6l0.1,0.1c0.1,0,0.1,0.1,0.2,0.2l0.1,0.2c0.4,0.6,0.3,1.4-0.1,2
	c-0.5,0.7-1.3,1-2.2,0.7L27.1,35L21,32.1l-0.7,1.5l6.3,3c1.5,0.5,3.1,0,4.1-1.2l0,0c0.5-0.7,0.7-1.5,0.6-2.4l-0.1-0.7l8.2-1.4
	c1.2-0.1,2.2,0.5,2.7,1.7c0.4,1.2-0.2,2.5-1.3,3c-2.4,1-6.2,2.5-9.4,3.8c-1.8,0.6-3.3,1.2-4.5,1.6c-0.6,0.2-1.1,0.3-1.5,0.5h-0.1
	v0.1h-0.6c-0.1,0-0.3,0-0.4-0.1c-0.2-0.1-0.7-0.2-1.2-0.5c-0.8-0.4-1.8-1-2.6-1.6c-0.9-0.6-1.9-1.2-2.8-1.7s-1.5-0.8-2.4-0.8
	c-1.6,0-3,0.4-3.9,0.6l0.6,1.5c0.6-0.2,1.6-0.5,2.6-0.5v0h0.6V39l0.2-0.7c0.2,0,0.8,0.2,1.5,0.6c0.8,0.4,1.6,1,2.6,1.6l0.2,0.1
	c0.9,0.6,1.7,1.1,2.5,1.5l0.1,0.1c0.8,0.4,1.5,0.8,2.4,0.8c0.4,0,0.6,0,1-0.2l0.1,0c0.5-0.1,1-0.2,1.6-0.5c1.2-0.4,2.8-1,4.5-1.6
	c3.3-1.2,7-2.8,9.4-3.8C43.4,36.1,44.3,33.9,43.7,31.9z M40.3,10.2c0,0-3.1-0.1-6,1.3l-0.9,0.4L33.2,11c-0.8-3.1-2.9-5.3-2.9-5.3
	l-0.6-0.6l-0.6,0.6c0,0-2.2,2.2-3,5.3l-0.2,0.9l-0.8-0.4c-2.9-1.4-6-1.3-6-1.3l-0.8,0.1l0,0.8c0,0.1,0.2,4.7,3.5,7.6
	c2.2,2,4.6,2.4,6.2,2.4l0.7,0.1v0l0.8,0c0,0,0.1,0,0.1,0s0.1,0,0.1,0l1.6-0.1c1.6-0.1,4-0.4,6.2-2.4c3.2-2.8,3.5-7.5,3.5-7.5l0-0.9
	L40.3,10.2z M27.6,19.3c-1.3-0.2-3.2-0.6-4.8-2s-2.1-3.2-2.5-4.5l-0.2-1.1l1.1,0.1c1.3,0.2,3.2,0.6,4.8,2l0.2,0.2
	c1.4,1.3,1.9,3.1,2.2,4.2l0.2,1.1L27.6,19.3z M29.7,16.5L29,15.3c-0.4-0.6-0.9-1.2-1.4-1.8l-0.2-0.2V13c0.1-1.5,0.7-3,1.6-4.5
	l0.6-0.9l0.6,0.9c1,1.5,1.5,3,1.6,4.5v0.3l-0.1,0.2c-0.5,0.6-1.1,1.2-1.4,1.8L29.7,16.5z M39,13c-0.3,1.2-0.9,3.1-2.5,4.4
	c-1.5,1.4-3.4,1.8-4.7,2l-1.1,0.1l0.3-1.1c0.4-1.2,1-3.1,2.5-4.4c1.5-1.4,3.5-1.8,4.8-1.9l1.1-0.1L39,13z"/>
</svg>
