<svg width="50" height="50" viewBox="0 0 50 50" fill="none" xmlns="http://www.w3.org/2000/svg">
<path d="M26.5 30.6504C33.4 29.8504 38.55 24.1004 38.55 17.2004C38.55 14.0004 38.05 11.2504 37.05 8.95041L36.8 8.30042H13.25L13 8.90041C12 11.2004 11.5 13.9504 11.5 17.1504C11.5 24.0504 16.7 29.8504 23.55 30.6004L24 30.6504V41.0504H16.1V43.1504H33.85V41.0504H26.05V30.7004L26.5 30.6504ZM25 28.6004C18.7 28.6004 13.55 23.4504 13.55 17.1504C13.55 14.7504 13.9 12.7004 14.6 10.7504L14.7 10.4004H35.25L35.35 10.7504C35.85 12.1004 36.15 13.7004 36.25 15.5504L36.3 16.1004H17.7V18.2004H36.35L36.25 18.7504C35.5 24.5004 30.75 28.6004 25 28.6004Z" fill="#876671"/>
</svg>
