<?xml version="1.0" encoding="utf-8"?>
<!-- Generator: Adobe Illustrator 25.0.0, SVG Export Plug-In . SVG Version: 6.00 Build 0)  -->
<svg version="1.1" id="Capa_1" xmlns="http://www.w3.org/2000/svg" xmlns:xlink="http://www.w3.org/1999/xlink" x="0px" y="0px"
	 viewBox="0 0 50 50" style="enable-background:new 0 0 50 50;" xml:space="preserve">
<style type="text/css">
	.st0{fill:#A52016;}
</style>
<path class="st0" d="M42.5,16.1c-0.8,0-1.6,0.1-2.3,0.4l-0.8,0.3l0.1-0.8c0.2-1.4,0.5-3.1,0.6-4.9l0.1-1.1H5.1L5.2,11
	c0.8,8.2,2.5,14.7,5.3,19.4c1.1,1.9,2.2,3.1,2.9,3.8l0.4,0.3l-0.2,0.4c-0.5,0.8-1.4,2.1-1.9,3.8L11,40.1h23.2l-0.5-1.4
	c-0.4-1.2-1-2.5-1.9-3.8l-0.2-0.4l0.4-0.3c0.7-0.6,1.3-1.5,2-2.5l0.1-0.1c1.2-1.9,4-2.6,7.2-3.5c1.7-0.5,3.2-1,4.4-1.9
	c1.3-1,2.2-2.6,2.2-4.4C47.9,18.7,45.5,16.1,42.5,16.1z M14.2,38l0.5-0.8c0.3-0.5,0.6-1,0.9-1.5l0.1-0.2h13.8l0.2,0.2
	c0.2,0.5,0.5,1,0.8,1.5l0.5,0.8H14.2z M33,29.4c-0.2,0.3-0.3,0.5-0.5,0.8c0,0.1-0.1,0.2-0.2,0.2l0,0.1c0,0-0.1,0.1-0.1,0.2l-0.1,0.1
	c-0.7,1-1.2,1.6-1.6,2c-0.2,0.2-0.5,0.4-0.6,0.5l-0.1,0.1h-0.2H15.5l-0.1-0.1c-0.2-0.1-0.3-0.2-0.7-0.5c-0.5-0.6-1.4-1.6-2.4-3.3
	c-1.2-2.2-3.6-7.2-4.7-16.9L7.5,12h30.3l0,0.6C36.6,22.2,34.3,27.2,33,29.4z M44.5,24.5c-0.8,0.5-2,1-3.7,1.5
	c-0.4,0.1-0.8,0.2-1.1,0.3c-0.7,0.2-1.5,0.4-2.2,0.6l-1,0.3l0.4-1c0.5-1.1,0.9-2.4,1.2-3.8l0.1-0.3h0c0.5-1.4,1-2.5,1.7-3.1
	c0.6-0.5,1.4-0.8,2.5-0.8c1.8,0,3.3,1.8,3.3,3.6C45.8,23.3,45.4,23.8,44.5,24.5z"/>
</svg>
