<svg width="50" height="50" viewBox="0 0 50 50" fill="none" xmlns="http://www.w3.org/2000/svg">
<path d="M42.4999 16.0995C41.6999 16.0995 40.8999 16.2495 40.1999 16.4995L39.3999 16.7995L39.4999 15.9995C39.6999 14.5995 39.9499 12.8995 40.1499 11.0495L40.2499 9.89954H5.09985L5.19985 11.0495C5.94985 19.2495 7.74985 25.7995 10.4499 30.4495C11.5499 32.2995 12.5999 33.4995 13.2999 34.1995L13.6499 34.5495L13.4499 34.9495C12.8999 35.7995 12.0499 37.0995 11.4999 38.7495L10.9999 40.1495H34.2499L33.7999 38.7495C33.3999 37.4995 32.7499 36.2495 31.8999 34.9495L31.6499 34.5995L32.0499 34.2495C32.6999 33.6495 33.3499 32.7995 34.0499 31.7995L34.1499 31.6995C35.3499 29.7995 38.0999 29.0495 41.2999 28.1495C42.9999 27.6495 44.4499 27.1995 45.6999 26.2995C47.0499 25.2995 47.8999 23.6995 47.8999 21.9495C47.9499 18.6995 45.4999 16.0995 42.4999 16.0995ZM14.1999 37.9995L14.6999 37.2495C14.9999 36.7995 15.2999 36.2995 15.5999 35.6995L15.7499 35.4495H29.5999L29.7499 35.6995C29.9999 36.1995 30.2999 36.7495 30.5999 37.2495L31.0999 37.9995H14.1999ZM33.0499 29.3995C32.8499 29.6995 32.6999 29.9495 32.5499 30.1995C32.4999 30.2495 32.4499 30.3495 32.3999 30.3995L32.3499 30.4995C32.2999 30.5495 32.2499 30.6495 32.1999 30.6995L32.1499 30.7495C31.4499 31.7995 30.8999 32.3495 30.5499 32.6995C30.2999 32.9495 30.0999 33.0995 29.9499 33.1995L29.7999 33.2995H29.5999H15.4999L15.3499 33.1995C15.1999 33.0995 15.0499 32.9995 14.6999 32.6495C14.1499 32.0995 13.2999 31.0995 12.2999 29.3495C11.0499 27.1995 8.74985 22.0995 7.59985 12.4995L7.54985 11.9995H37.7999L37.7499 12.5495C36.5999 22.1995 34.2999 27.2495 33.0499 29.3995ZM44.5499 24.4995C43.7999 25.0495 42.5499 25.5495 40.8499 26.0495C40.4499 26.1495 40.0999 26.2495 39.6999 26.3495C38.9999 26.5495 38.2499 26.7495 37.4999 26.9495L36.4999 27.2495L36.8999 26.2495C37.3499 25.1495 37.7499 23.8995 38.1499 22.4495L38.2499 22.0995H38.2999C38.7499 20.6995 39.2999 19.6495 39.9999 19.0495C40.6499 18.4995 41.3999 18.2495 42.5499 18.2495C44.2999 18.2495 45.8999 19.9995 45.8999 21.8495C45.7999 23.2995 45.3999 23.8495 44.5499 24.4995Z" fill="#876671"/>
</svg>
