<?xml version="1.0" encoding="utf-8"?>
<!-- Generator: Adobe Illustrator 25.0.0, SVG Export Plug-In . SVG Version: 6.00 Build 0)  -->
<svg version="1.1" id="Capa_1" xmlns="http://www.w3.org/2000/svg" xmlns:xlink="http://www.w3.org/1999/xlink" x="0px" y="0px"
	 viewBox="0 0 50 50" style="enable-background:new 0 0 50 50;" xml:space="preserve">
<style type="text/css">
	.st0{fill:#A52016;}
</style>
<path class="st0" d="M32.8,30.2c-0.6,0-1.1,0.5-1.1,1c0,0.5,0.5,1,1.1,1c0.6,0,1-0.5,1-1C33.8,30.7,33.4,30.2,32.8,30.2z M17.2,30.2
	c-0.6,0-1.1,0.5-1.1,1c0,0.5,0.5,1,1.1,1c0.6,0,1-0.5,1-1C18.2,30.7,17.7,30.2,17.2,30.2z M32.8,30.2c-0.6,0-1.1,0.5-1.1,1
	c0,0.5,0.5,1,1.1,1c0.6,0,1-0.5,1-1C33.8,30.7,33.4,30.2,32.8,30.2z M17.2,30.2c-0.6,0-1.1,0.5-1.1,1c0,0.5,0.5,1,1.1,1
	c0.6,0,1-0.5,1-1C18.2,30.7,17.7,30.2,17.2,30.2z M17.2,30.2c-0.6,0-1.1,0.5-1.1,1c0,0.5,0.5,1,1.1,1c0.6,0,1-0.5,1-1
	C18.2,30.7,17.7,30.2,17.2,30.2z M32.8,30.2c-0.6,0-1.1,0.5-1.1,1c0,0.5,0.5,1,1.1,1c0.6,0,1-0.5,1-1C33.8,30.7,33.4,30.2,32.8,30.2
	z M32.8,30.2c-0.6,0-1.1,0.5-1.1,1c0,0.5,0.5,1,1.1,1c0.6,0,1-0.5,1-1C33.8,30.7,33.4,30.2,32.8,30.2z M17.2,30.2
	c-0.6,0-1.1,0.5-1.1,1c0,0.5,0.5,1,1.1,1c0.6,0,1-0.5,1-1C18.2,30.7,17.7,30.2,17.2,30.2z M17.2,30.2c-0.6,0-1.1,0.5-1.1,1
	c0,0.5,0.5,1,1.1,1c0.6,0,1-0.5,1-1C18.2,30.7,17.7,30.2,17.2,30.2z M32.8,30.2c-0.6,0-1.1,0.5-1.1,1c0,0.5,0.5,1,1.1,1
	c0.6,0,1-0.5,1-1C33.8,30.7,33.4,30.2,32.8,30.2z M32.8,30.2c-0.6,0-1.1,0.5-1.1,1c0,0.5,0.5,1,1.1,1c0.6,0,1-0.5,1-1
	C33.8,30.7,33.4,30.2,32.8,30.2z M17.2,30.2c-0.6,0-1.1,0.5-1.1,1c0,0.5,0.5,1,1.1,1c0.6,0,1-0.5,1-1C18.2,30.7,17.7,30.2,17.2,30.2
	z M17.2,30.2c-0.6,0-1.1,0.5-1.1,1c0,0.5,0.5,1,1.1,1c0.6,0,1-0.5,1-1C18.2,30.7,17.7,30.2,17.2,30.2z M32.8,30.2
	c-0.6,0-1.1,0.5-1.1,1c0,0.5,0.5,1,1.1,1c0.6,0,1-0.5,1-1C33.8,30.7,33.4,30.2,32.8,30.2z M32.8,30.2c-0.6,0-1.1,0.5-1.1,1
	c0,0.5,0.5,1,1.1,1c0.6,0,1-0.5,1-1C33.8,30.7,33.4,30.2,32.8,30.2z M17.2,30.2c-0.6,0-1.1,0.5-1.1,1c0,0.5,0.5,1,1.1,1
	c0.6,0,1-0.5,1-1C18.2,30.7,17.7,30.2,17.2,30.2z M38.3,27.4L38,26.6h0.1l-2-6.1c-0.5-1.4-2-2.8-4-2.8H17.9c-2,0-3.4,1.4-4,2.8v0.1
	l-2.1,6.2l0.2,0l-0.2,0.5c-0.2,0.3-0.5,1.1-0.5,1.2v5.8c0,0.8,0.2,1.4,0.8,1.9c0.1,0.2,0.3,0.3,0.5,0.4l0.2,0.1v2.2
	c0,0.7,0.4,1.1,1.1,1.1c0.7,0,1.1-0.4,1.1-1.1V37h19.8v2c0,0.7,0.4,1,1,1s1-0.4,1-1v-2.2l0.2-0.1c0.2-0.2,0.5-0.2,0.5-0.4
	c0.5-0.5,0.8-1.2,0.8-1.9v-5.7C38.5,28.4,38.5,27.9,38.3,27.4z M16,21.3c0.4-0.9,1.1-1.4,1.9-1.4h14.2c0.9,0,1.6,0.5,2,1.5l1.3,4.1
	H14.6L16,21.3z M36.4,34.9H13.5v-6.5l0.1-0.1l0.2-0.6h22.2l0.1,0.1l0.1,0.5l-0.3,0.1l0.3-0.1c0,0,0,0.1,0,0.4L36.4,34.9L36.4,34.9z
	 M32.8,30.2c-0.6,0-1.1,0.5-1.1,1c0,0.5,0.5,1,1.1,1c0.6,0,1-0.5,1-1C33.8,30.7,33.4,30.2,32.8,30.2z M17.2,30.2
	c-0.6,0-1.1,0.5-1.1,1c0,0.5,0.5,1,1.1,1c0.6,0,1-0.5,1-1C18.2,30.7,17.7,30.2,17.2,30.2z M17.2,30.2c-0.6,0-1.1,0.5-1.1,1
	c0,0.5,0.5,1,1.1,1c0.6,0,1-0.5,1-1C18.2,30.7,17.7,30.2,17.2,30.2z M32.8,30.2c-0.6,0-1.1,0.5-1.1,1c0,0.5,0.5,1,1.1,1
	c0.6,0,1-0.5,1-1C33.8,30.7,33.4,30.2,32.8,30.2z M32.8,30.2c-0.6,0-1.1,0.5-1.1,1c0,0.5,0.5,1,1.1,1c0.6,0,1-0.5,1-1
	C33.8,30.7,33.4,30.2,32.8,30.2z M17.2,30.2c-0.6,0-1.1,0.5-1.1,1c0,0.5,0.5,1,1.1,1c0.6,0,1-0.5,1-1C18.2,30.7,17.7,30.2,17.2,30.2
	z M17.2,30.2c-0.6,0-1.1,0.5-1.1,1c0,0.5,0.5,1,1.1,1c0.6,0,1-0.5,1-1C18.2,30.7,17.7,30.2,17.2,30.2z M32.8,30.2
	c-0.6,0-1.1,0.5-1.1,1c0,0.5,0.5,1,1.1,1c0.6,0,1-0.5,1-1C33.8,30.7,33.4,30.2,32.8,30.2z M32.8,30.2c-0.6,0-1.1,0.5-1.1,1
	c0,0.5,0.5,1,1.1,1c0.6,0,1-0.5,1-1C33.8,30.7,33.4,30.2,32.8,30.2z M17.2,30.2c-0.6,0-1.1,0.5-1.1,1c0,0.5,0.5,1,1.1,1
	c0.6,0,1-0.5,1-1C18.2,30.7,17.7,30.2,17.2,30.2z M17.2,30.2c-0.6,0-1.1,0.5-1.1,1c0,0.5,0.5,1,1.1,1c0.6,0,1-0.5,1-1
	C18.2,30.7,17.7,30.2,17.2,30.2z M32.8,30.2c-0.6,0-1.1,0.5-1.1,1c0,0.5,0.5,1,1.1,1c0.6,0,1-0.5,1-1C33.8,30.7,33.4,30.2,32.8,30.2
	z M32.8,30.2c-0.6,0-1.1,0.5-1.1,1c0,0.5,0.5,1,1.1,1c0.6,0,1-0.5,1-1C33.8,30.7,33.4,30.2,32.8,30.2z M17.2,30.2
	c-0.6,0-1.1,0.5-1.1,1c0,0.5,0.5,1,1.1,1c0.6,0,1-0.5,1-1C18.2,30.7,17.7,30.2,17.2,30.2z M44.1,16.2L25,8.2l-19.1,8l-0.7,0.3v23.7
	h2.1V18L25,10.6L42.7,18v22.2h2.1V16.5L44.1,16.2z"/>
</svg>
