<svg width="50" height="50" viewBox="0 0 50 50" fill="none" xmlns="http://www.w3.org/2000/svg">
<path d="M32.7998 30.2C32.1998 30.2 31.7498 30.7 31.7498 31.25C31.7498 31.7999 32.2498 32.2999 32.7998 32.2999C33.3998 32.2999 33.8498 31.7999 33.8498 31.25C33.8498 30.7 33.3998 30.2 32.7998 30.2ZM17.1998 30.2C16.5998 30.2 16.1498 30.7 16.1498 31.25C16.1498 31.7999 16.6498 32.2999 17.1998 32.2999C17.7998 32.2999 18.2498 31.7999 18.2498 31.25C18.2498 30.7 17.7498 30.2 17.1998 30.2ZM32.7998 30.2C32.1998 30.2 31.7498 30.7 31.7498 31.25C31.7498 31.7999 32.2498 32.2999 32.7998 32.2999C33.3998 32.2999 33.8498 31.7999 33.8498 31.25C33.8498 30.7 33.3998 30.2 32.7998 30.2ZM17.1998 30.2C16.5998 30.2 16.1498 30.7 16.1498 31.25C16.1498 31.7999 16.6498 32.2999 17.1998 32.2999C17.7998 32.2999 18.2498 31.7999 18.2498 31.25C18.2498 30.7 17.7498 30.2 17.1998 30.2ZM17.1998 30.2C16.5998 30.2 16.1498 30.7 16.1498 31.25C16.1498 31.7999 16.6498 32.2999 17.1998 32.2999C17.7998 32.2999 18.2498 31.7999 18.2498 31.25C18.2498 30.7 17.7498 30.2 17.1998 30.2ZM32.7998 30.2C32.1998 30.2 31.7498 30.7 31.7498 31.25C31.7498 31.7999 32.2498 32.2999 32.7998 32.2999C33.3998 32.2999 33.8498 31.7999 33.8498 31.25C33.8498 30.7 33.3998 30.2 32.7998 30.2ZM32.7998 30.2C32.1998 30.2 31.7498 30.7 31.7498 31.25C31.7498 31.7999 32.2498 32.2999 32.7998 32.2999C33.3998 32.2999 33.8498 31.7999 33.8498 31.25C33.8498 30.7 33.3998 30.2 32.7998 30.2ZM17.1998 30.2C16.5998 30.2 16.1498 30.7 16.1498 31.25C16.1498 31.7999 16.6498 32.2999 17.1998 32.2999C17.7998 32.2999 18.2498 31.7999 18.2498 31.25C18.2498 30.7 17.7498 30.2 17.1998 30.2ZM17.1998 30.2C16.5998 30.2 16.1498 30.7 16.1498 31.25C16.1498 31.7999 16.6498 32.2999 17.1998 32.2999C17.7998 32.2999 18.2498 31.7999 18.2498 31.25C18.2498 30.7 17.7498 30.2 17.1998 30.2ZM32.7998 30.2C32.1998 30.2 31.7498 30.7 31.7498 31.25C31.7498 31.7999 32.2498 32.2999 32.7998 32.2999C33.3998 32.2999 33.8498 31.7999 33.8498 31.25C33.8498 30.7 33.3998 30.2 32.7998 30.2ZM32.7998 30.2C32.1998 30.2 31.7498 30.7 31.7498 31.25C31.7498 31.7999 32.2498 32.2999 32.7998 32.2999C33.3998 32.2999 33.8498 31.7999 33.8498 31.25C33.8498 30.7 33.3998 30.2 32.7998 30.2ZM17.1998 30.2C16.5998 30.2 16.1498 30.7 16.1498 31.25C16.1498 31.7999 16.6498 32.2999 17.1998 32.2999C17.7998 32.2999 18.2498 31.7999 18.2498 31.25C18.2498 30.7 17.7498 30.2 17.1998 30.2ZM17.1998 30.2C16.5998 30.2 16.1498 30.7 16.1498 31.25C16.1498 31.7999 16.6498 32.2999 17.1998 32.2999C17.7998 32.2999 18.2498 31.7999 18.2498 31.25C18.2498 30.7 17.7498 30.2 17.1998 30.2ZM32.7998 30.2C32.1998 30.2 31.7498 30.7 31.7498 31.25C31.7498 31.7999 32.2498 32.2999 32.7998 32.2999C33.3998 32.2999 33.8498 31.7999 33.8498 31.25C33.8498 30.7 33.3998 30.2 32.7998 30.2ZM32.7998 30.2C32.1998 30.2 31.7498 30.7 31.7498 31.25C31.7498 31.7999 32.2498 32.2999 32.7998 32.2999C33.3998 32.2999 33.8498 31.7999 33.8498 31.25C33.8498 30.7 33.3998 30.2 32.7998 30.2ZM17.1998 30.2C16.5998 30.2 16.1498 30.7 16.1498 31.25C16.1498 31.7999 16.6498 32.2999 17.1998 32.2999C17.7998 32.2999 18.2498 31.7999 18.2498 31.25C18.2498 30.7 17.7498 30.2 17.1998 30.2ZM38.2998 27.35L38.0498 26.65H38.1498L36.1498 20.5C35.5998 19.1 34.1498 17.7 32.1998 17.7H17.9498C15.9998 17.7 14.5498 19.1 13.9998 20.55V20.65L11.9498 26.85L12.1498 26.9L11.8998 27.4C11.7498 27.7 11.4498 28.45 11.3998 28.65V34.4C11.3998 35.15 11.6498 35.7999 12.1498 36.2999C12.2998 36.4499 12.4498 36.55 12.6998 36.7L12.9498 36.8499V39.0999C12.9498 39.7499 13.3498 40.15 13.9998 40.15C14.6498 40.15 15.0498 39.7499 15.0498 39.0999V37H34.7998V39.0499C34.7998 39.6999 35.1998 40.0999 35.8498 40.0999C36.4998 40.0999 36.8998 39.6999 36.8998 39.0499V36.7999L37.1498 36.65C37.3998 36.5 37.5998 36.4 37.6998 36.25C38.1498 35.7999 38.4498 35.0999 38.4498 34.3499V28.6C38.5498 28.4 38.4998 27.85 38.2998 27.35ZM16.0498 21.3C16.4498 20.35 17.1498 19.85 17.9998 19.85H32.1998C33.0998 19.85 33.7998 20.4 34.1998 21.35L35.4998 25.5H14.6498L16.0498 21.3ZM36.4498 34.9H13.5498V28.4L13.6998 28.25L13.9498 27.65H36.1998L36.2498 27.75L36.3998 28.2L36.0998 28.35L36.3998 28.2999C36.3998 28.2999 36.3998 28.4 36.3998 28.65V34.9H36.4498ZM32.7998 30.2C32.1998 30.2 31.7498 30.7 31.7498 31.25C31.7498 31.7999 32.2498 32.2999 32.7998 32.2999C33.3998 32.2999 33.8498 31.7999 33.8498 31.25C33.8498 30.7 33.3998 30.2 32.7998 30.2ZM17.1998 30.2C16.5998 30.2 16.1498 30.7 16.1498 31.25C16.1498 31.7999 16.6498 32.2999 17.1998 32.2999C17.7998 32.2999 18.2498 31.7999 18.2498 31.25C18.2498 30.7 17.7498 30.2 17.1998 30.2ZM17.1998 30.2C16.5998 30.2 16.1498 30.7 16.1498 31.25C16.1498 31.7999 16.6498 32.2999 17.1998 32.2999C17.7998 32.2999 18.2498 31.7999 18.2498 31.25C18.2498 30.7 17.7498 30.2 17.1998 30.2ZM32.7998 30.2C32.1998 30.2 31.7498 30.7 31.7498 31.25C31.7498 31.7999 32.2498 32.2999 32.7998 32.2999C33.3998 32.2999 33.8498 31.7999 33.8498 31.25C33.8498 30.7 33.3998 30.2 32.7998 30.2ZM32.7998 30.2C32.1998 30.2 31.7498 30.7 31.7498 31.25C31.7498 31.7999 32.2498 32.2999 32.7998 32.2999C33.3998 32.2999 33.8498 31.7999 33.8498 31.25C33.8498 30.7 33.3998 30.2 32.7998 30.2ZM17.1998 30.2C16.5998 30.2 16.1498 30.7 16.1498 31.25C16.1498 31.7999 16.6498 32.2999 17.1998 32.2999C17.7998 32.2999 18.2498 31.7999 18.2498 31.25C18.2498 30.7 17.7498 30.2 17.1998 30.2ZM17.1998 30.2C16.5998 30.2 16.1498 30.7 16.1498 31.25C16.1498 31.7999 16.6498 32.2999 17.1998 32.2999C17.7998 32.2999 18.2498 31.7999 18.2498 31.25C18.2498 30.7 17.7498 30.2 17.1998 30.2ZM32.7998 30.2C32.1998 30.2 31.7498 30.7 31.7498 31.25C31.7498 31.7999 32.2498 32.2999 32.7998 32.2999C33.3998 32.2999 33.8498 31.7999 33.8498 31.25C33.8498 30.7 33.3998 30.2 32.7998 30.2ZM32.7998 30.2C32.1998 30.2 31.7498 30.7 31.7498 31.25C31.7498 31.7999 32.2498 32.2999 32.7998 32.2999C33.3998 32.2999 33.8498 31.7999 33.8498 31.25C33.8498 30.7 33.3998 30.2 32.7998 30.2ZM17.1998 30.2C16.5998 30.2 16.1498 30.7 16.1498 31.25C16.1498 31.7999 16.6498 32.2999 17.1998 32.2999C17.7998 32.2999 18.2498 31.7999 18.2498 31.25C18.2498 30.7 17.7498 30.2 17.1998 30.2ZM17.1998 30.2C16.5998 30.2 16.1498 30.7 16.1498 31.25C16.1498 31.7999 16.6498 32.2999 17.1998 32.2999C17.7998 32.2999 18.2498 31.7999 18.2498 31.25C18.2498 30.7 17.7498 30.2 17.1998 30.2ZM32.7998 30.2C32.1998 30.2 31.7498 30.7 31.7498 31.25C31.7498 31.7999 32.2498 32.2999 32.7998 32.2999C33.3998 32.2999 33.8498 31.7999 33.8498 31.25C33.8498 30.7 33.3998 30.2 32.7998 30.2ZM32.7998 30.2C32.1998 30.2 31.7498 30.7 31.7498 31.25C31.7498 31.7999 32.2498 32.2999 32.7998 32.2999C33.3998 32.2999 33.8498 31.7999 33.8498 31.25C33.8498 30.7 33.3998 30.2 32.7998 30.2ZM17.1998 30.2C16.5998 30.2 16.1498 30.7 16.1498 31.25C16.1498 31.7999 16.6498 32.2999 17.1998 32.2999C17.7998 32.2999 18.2498 31.7999 18.2498 31.25C18.2498 30.7 17.7498 30.2 17.1998 30.2ZM44.1498 16.2L24.9998 8.19995L5.84983 16.2L5.19983 16.5V40.15H7.29983V17.95L24.9998 10.55L42.6998 17.95V40.15H44.7998V16.5L44.1498 16.2Z" fill="#876671"/>
</svg>
