<svg width="50" height="50" viewBox="0 0 50 50" fill="none" xmlns="http://www.w3.org/2000/svg">
<path d="M26.4503 32.1001C28.8503 31.5001 30.5503 29.4501 30.7503 27.1001H28.6003C28.3503 28.9001 26.8503 30.2501 25.0003 30.2501C23.1503 30.2501 21.6503 28.9001 21.4003 27.1001H19.2503C19.4503 29.5001 21.1503 31.5001 23.5503 32.1001L23.9503 32.2001V38.2501L23.7003 38.4001C22.8503 38.9001 22.4003 39.7001 22.4003 40.6501C22.4003 42.1001 23.5503 43.2501 25.0003 43.2501C26.4503 43.2501 27.6003 42.0501 27.6003 40.6501C27.6003 39.7001 27.1003 38.9001 26.3003 38.4001L26.0503 38.2501V32.2001L26.4503 32.1001ZM19.6503 23.5001C19.0003 19.7501 15.8503 17.9501 14.5003 17.3501C12.6503 16.5001 10.8003 16.2501 9.95029 16.1501L9.80029 18.3001C10.5503 18.4001 12.1003 18.6501 13.6503 19.3001C15.4503 20.1001 17.5003 21.4001 17.7003 24.5001H19.8003C19.7503 24.1501 19.7003 23.8501 19.6503 23.5001ZM19.9003 7.75012L18.0503 8.75012C18.4003 9.60012 19.2003 11.6001 19.8503 14.7501L20.2503 16.6001L19.0003 15.1501C17.0503 12.9001 14.9003 11.4501 14.0003 10.9001L13.0003 12.7501C14.5503 13.7501 19.8003 17.5001 20.7003 23.3501C20.7503 23.7501 20.8003 24.1501 20.8503 24.5001H23.0003C22.8503 15.2501 20.6003 9.40012 19.9003 7.75012ZM40.0503 16.1501C39.2003 16.2501 37.3503 16.5001 35.5003 17.3501C33.9503 18.0501 30.4503 20.1001 30.2003 24.5001H32.3503C32.5503 21.4001 34.6003 20.1001 36.4003 19.3001C37.9003 18.6501 39.4503 18.3501 40.2503 18.3001L40.0503 16.1501ZM36.9503 11.4501C36.0503 11.6001 34.1003 12.0001 32.2003 13.3001L30.8503 14.2501L31.4003 12.8501V12.8001L31.4503 12.6001C32.2003 10.7001 32.9503 9.50012 33.3003 8.90012L31.6503 7.55012C31.2003 8.25012 30.3003 9.70012 29.4003 11.8001C28.3503 14.4501 27.0503 18.7501 27.0003 24.5001H29.1503C29.2503 20.0501 30.6503 16.9501 33.3503 15.0501C34.8003 14.0501 36.2503 13.7001 36.9503 13.5501V11.4501ZM23.9503 6.75012V24.5001H26.0503V6.75012H23.9503Z" fill="#876671"/>
</svg>
