<?xml version="1.0" encoding="utf-8"?>
<!-- Generator: Adobe Illustrator 25.0.0, SVG Export Plug-In . SVG Version: 6.00 Build 0)  -->
<svg version="1.1" id="Capa_1" xmlns="http://www.w3.org/2000/svg" xmlns:xlink="http://www.w3.org/1999/xlink" x="0px" y="0px"
	 viewBox="0 0 50 50" style="enable-background:new 0 0 50 50;" xml:space="preserve">
<style type="text/css">
	.st0{fill:#A52016;}
</style>
<path class="st0" d="M26.5,32.1c2.4-0.6,4.1-2.7,4.3-5h-2.1c-0.2,1.8-1.8,3.1-3.6,3.1s-3.4-1.3-3.6-3.1h-2.1c0.2,2.4,1.9,4.4,4.3,5
	l0.4,0.1v6l-0.2,0.2c-0.9,0.5-1.3,1.3-1.3,2.2c0,1.5,1.2,2.6,2.6,2.6c1.5,0,2.6-1.2,2.6-2.6c0-1-0.5-1.8-1.3-2.2l-0.2-0.2v-6
	L26.5,32.1z M19.7,23.5c-0.6-3.8-3.8-5.5-5.1-6.1c-1.9-0.9-3.7-1.1-4.6-1.2l-0.1,2.1c0.8,0.1,2.3,0.4,3.9,1c1.8,0.8,3.8,2.1,4.1,5.2
	h2.1C19.8,24.2,19.7,23.9,19.7,23.5z M19.9,7.8l-1.8,1c0.3,0.8,1.1,2.8,1.8,6l0.4,1.8L19,15.2c-1.9-2.2-4.1-3.7-5-4.2l-1,1.9
	c1.5,1,6.8,4.7,7.7,10.6c0,0.4,0.1,0.8,0.1,1.1H23C22.9,15.3,20.6,9.4,19.9,7.8z M40.1,16.2c-0.9,0.1-2.7,0.3-4.5,1.2
	c-1.6,0.7-5.1,2.8-5.3,7.1h2.1c0.2-3.1,2.2-4.4,4-5.2c1.5-0.6,3-1,3.9-1L40.1,16.2z M37,11.5c-0.9,0.1-2.8,0.6-4.8,1.9l-1.3,0.9
	l0.5-1.4v0l0.1-0.2c0.7-1.9,1.5-3.1,1.9-3.7l-1.7-1.3c-0.4,0.7-1.3,2.2-2.2,4.2c-1,2.6-2.3,6.9-2.4,12.7h2.1
	c0.1-4.4,1.5-7.5,4.2-9.4c1.5-1,2.9-1.4,3.6-1.5V11.5z M24,6.8v17.7h2.1V6.8H24z"/>
</svg>
