<svg width="50" height="50" viewBox="0 0 50 50" fill="none" xmlns="http://www.w3.org/2000/svg">
<path d="M38.4565 25.4046L38.2986 25.3811L38.2481 25.2277C37.8955 24.16 37.2284 23.2328 36.3403 22.5758C35.4522 21.9188 34.3874 21.5648 33.2949 21.5635H28.3769L28.6864 21.1373C29.3696 20.2031 29.7375 19.0634 29.7338 17.8928C29.7338 16.4584 29.182 15.0828 28.1997 14.0685C27.2174 13.0542 25.8851 12.4844 24.4959 12.4844C23.1067 12.4844 21.7744 13.0542 20.7921 14.0685C19.8098 15.0828 19.2579 16.4584 19.2579 17.8928C19.2551 19.0638 19.6241 20.2035 20.3084 21.1373L20.618 21.5635H15.7071C14.6146 21.5648 13.5498 21.9188 12.6617 22.5758C11.7736 23.2328 11.1066 24.16 10.754 25.2277L10.7034 25.3811L10.5466 25.4046C9.2862 25.5994 8.13497 26.2536 7.30107 27.2487C6.46717 28.2438 6.00566 29.5142 6 30.8301V35.9753C6 37.4393 6.54485 38.7051 7.57675 39.6353C8.555 40.5186 9.881 41.0045 11.3112 41.0045H37.6888C40.3284 41.0045 43 39.2773 43 35.9753V30.8301C42.9945 29.5146 42.5334 28.2446 41.7001 27.2496C40.8668 26.2546 39.7163 25.6001 38.4565 25.4046ZM24.5 14.2254C25.2031 14.2254 25.8904 14.4407 26.475 14.844C27.0596 15.2473 27.5152 15.8206 27.7843 16.4913C28.0534 17.1621 28.1238 17.9001 27.9866 18.6121C27.8494 19.3242 27.5109 19.9782 27.0137 20.4915C26.5165 21.0049 25.8831 21.3545 25.1935 21.4961C24.5039 21.6378 23.7892 21.5651 23.1396 21.2872C22.49 21.0094 21.9348 20.5389 21.5442 19.9353C21.1536 19.3317 20.9451 18.622 20.9451 17.896C20.9459 16.9228 21.3207 15.9896 21.9872 15.3014C22.6537 14.6132 23.5574 14.2262 24.5 14.2254ZM41.3201 35.9785C41.3201 38.2406 39.4389 39.2709 37.6908 39.2709H11.3112C9.56317 39.2709 7.68201 38.2406 7.68201 35.9785V30.8301C7.68268 30.0506 7.91857 29.2908 8.35689 28.6562C8.7952 28.0217 9.41414 27.5439 10.1276 27.2894L10.4692 27.1669V30.6031C10.4692 32.3292 11.8189 33.7879 13.4173 33.7879C14.9353 33.7879 16.5481 32.6883 16.5481 30.6511V27.8403H18.5294V34.5763H20.2124V26.1057H15.7071C15.4842 26.1059 15.2704 26.1975 15.1128 26.3603C14.9551 26.5231 14.8664 26.7438 14.8661 26.974V30.6532C14.8656 30.8397 14.8291 31.0242 14.7587 31.196C14.6883 31.3677 14.5854 31.5232 14.456 31.6534C14.3267 31.7836 14.1735 31.8858 14.0054 31.9541C13.8373 32.0224 13.6578 32.0554 13.4772 32.0511C12.7549 32.0511 12.1522 31.3884 12.1522 30.6031V26.9719C12.153 25.9987 12.5278 25.0655 13.1943 24.3773C13.8608 23.6891 14.7646 23.3021 15.7071 23.3013H33.2929C34.2354 23.3021 35.1392 23.6891 35.8057 24.3773C36.4722 25.0655 36.847 25.9987 36.8478 26.9719V30.6031C36.8478 31.3884 36.241 32.0511 35.5228 32.0511C35.159 32.0551 34.8085 31.91 34.5481 31.6475C34.2877 31.3851 34.1388 31.0267 34.1339 30.6511V26.9719C34.1336 26.7417 34.0449 26.521 33.8872 26.3582C33.7296 26.1954 33.5158 26.1038 33.2929 26.1035H28.7876V34.5763H30.4706V27.8424H32.4519V30.6532C32.4519 32.4113 33.8274 33.79 35.5827 33.79C37.1801 33.79 38.5308 32.3313 38.5308 30.6052V27.1669L38.8724 27.2894C39.5859 27.5439 40.2048 28.0217 40.6431 28.6562C41.0814 29.2908 41.3173 30.0506 41.318 30.8301L41.3201 35.9785Z" fill="#876671"/>
<path d="M9.37717 15.8806C9.92718 16.5199 10.6051 17.3169 10.6794 18.7574H8.99227C8.92829 17.9796 8.57951 17.5715 8.11412 17.026C7.53213 16.3462 6.80566 15.497 6.80566 13.8828C6.80566 12.2686 7.528 11.4183 8.11515 10.7353C8.57951 10.1898 8.92933 9.78172 8.99227 9.00391H10.6794C10.6051 10.4477 9.92718 11.2414 9.37614 11.8807C8.86019 12.4849 8.48767 12.9207 8.48767 13.8785C8.48767 14.8364 8.86019 15.2765 9.37717 15.8806Z" fill="#876671"/>
<path d="M15.2384 15.8806C15.7895 16.5199 16.4664 17.3169 16.5417 18.7574H14.8556C14.7916 17.9796 14.4428 17.5715 13.9775 17.026C13.3934 16.343 12.668 15.4938 12.668 13.8796C12.668 12.2654 13.3903 11.4151 13.9775 10.7311C14.4428 10.1898 14.7916 9.78172 14.8556 9.00391H16.5417C16.4664 10.4477 15.7895 11.2414 15.2384 11.8807C14.7225 12.4838 14.35 12.9207 14.35 13.8785C14.35 14.8364 14.7225 15.2765 15.2384 15.8806Z" fill="#876671"/>
<path d="M35.0226 15.8799C35.5737 16.5192 36.2506 17.3162 36.3259 18.7567H34.6398C34.5758 17.9789 34.227 17.5708 33.7616 17.0253C33.1776 16.3423 32.4521 15.4931 32.4521 13.8789C32.4521 12.2647 33.1745 11.4144 33.7616 10.7304C34.227 10.1859 34.5758 9.77781 34.6398 9H36.3259C36.2506 10.4437 35.5737 11.2375 35.0226 11.8768C34.5067 12.481 34.1342 12.9168 34.1342 13.8746C34.1342 14.8325 34.5067 15.2758 35.0226 15.8799Z" fill="#876671"/>
<path d="M40.885 15.8799C41.435 16.5192 42.113 17.3162 42.1873 18.7567H40.5021C40.4382 17.9789 40.0894 17.5708 39.623 17.0253C39.0399 16.3423 38.3135 15.4931 38.3135 13.8789C38.3135 12.2647 39.0358 11.4144 39.624 10.7314C40.0894 10.1859 40.4382 9.77781 40.5021 9H42.1873C42.113 10.4437 41.435 11.2375 40.884 11.8768C40.368 12.481 39.9965 12.9168 39.9965 13.8746C39.9965 14.8325 40.369 15.2758 40.885 15.8799Z" fill="#876671"/>
</svg>
