<?xml version="1.0" encoding="utf-8"?>
<!-- Generator: Adobe Illustrator 25.0.0, SVG Export Plug-In . SVG Version: 6.00 Build 0)  -->
<svg version="1.1" id="Capa_1" xmlns="http://www.w3.org/2000/svg" xmlns:xlink="http://www.w3.org/1999/xlink" x="0px" y="0px"
	 viewBox="0 0 50 50" style="enable-background:new 0 0 50 50;" xml:space="preserve">
<style type="text/css">
	.st0{fill:#A52016;}
</style>
<path class="st0" d="M25,19.3c-4.9,0-8.9,4-8.9,8.9s4,8.8,8.9,8.8c4.9,0,8.9-4,8.9-8.9S29.9,19.3,25,19.3z M19,25.1
	c1.2-2.3,3.5-3.8,6-3.8c3.4,0,6.3,2.6,6.6,6.1l0,0.3l-0.2,0.1c-0.5,0.4-1.1,0.5-1.7,0.5c-0.2,0-0.4,0-0.6,0
	c-1.1-0.1-2.5-0.7-3.8-1.2L25.1,27c-1.2-0.5-2.5-1.1-3.9-1.2c-0.6,0-1.1,0-1.6,0.1l-1,0.1L19,25.1z M31,31.2c-1.1,2.3-3.5,3.8-6,3.8
	c-3.5,0-6.3-2.6-6.7-6.1l0-0.4l0.2-0.1c0.5-0.4,0.9-0.5,1.5-0.5c0.2,0,0.4,0,0.6,0h0.1c1.1,0.1,2.5,0.7,3.8,1.2l0.4,0.2
	c1.2,0.6,2.5,1.1,4,1.2c0.5,0.1,1,0,1.5-0.1l1-0.2L31,31.2z M32.8,13c-0.6,0-1.1,0.5-1.1,1.1c0,0.6,0.5,1,1.1,1c0.6,0,1-0.5,1-1
	C33.9,13.5,33.4,13,32.8,13z M28.1,13c-0.6,0-1.1,0.5-1.1,1.1c0,0.6,0.5,1,1.1,1c0.5,0,1-0.5,1-1C29.2,13.5,28.7,13,28.1,13z
	 M32.8,13c-0.6,0-1.1,0.5-1.1,1.1c0,0.6,0.5,1,1.1,1c0.6,0,1-0.5,1-1C33.9,13.5,33.4,13,32.8,13z M25,19.3c-4.9,0-8.9,4-8.9,8.9
	s4,8.8,8.9,8.8c4.9,0,8.9-4,8.9-8.9S29.9,19.3,25,19.3z M19,25.1c1.2-2.3,3.5-3.8,6-3.8c3.4,0,6.3,2.6,6.6,6.1l0,0.3l-0.2,0.1
	c-0.5,0.4-1.1,0.5-1.7,0.5c-0.2,0-0.4,0-0.6,0c-1.1-0.1-2.5-0.7-3.8-1.2L25.1,27c-1.2-0.5-2.5-1.1-3.9-1.2c-0.6,0-1.1,0-1.6,0.1
	l-1,0.1L19,25.1z M31,31.2c-1.1,2.3-3.5,3.8-6,3.8c-3.5,0-6.3-2.6-6.7-6.1l0-0.4l0.2-0.1c0.5-0.4,0.9-0.5,1.5-0.5c0.2,0,0.4,0,0.6,0
	h0.1c1.1,0.1,2.5,0.7,3.8,1.2l0.4,0.2c1.2,0.6,2.5,1.1,4,1.2c0.5,0.1,1,0,1.5-0.1l1-0.2L31,31.2z M28.1,13c-0.6,0-1.1,0.5-1.1,1.1
	c0,0.6,0.5,1,1.1,1c0.5,0,1-0.5,1-1C29.2,13.5,28.7,13,28.1,13z M28.1,13c-0.6,0-1.1,0.5-1.1,1.1c0,0.6,0.5,1,1.1,1c0.5,0,1-0.5,1-1
	C29.2,13.5,28.7,13,28.1,13z M25,19.3c-4.9,0-8.9,4-8.9,8.9s4,8.8,8.9,8.8c4.9,0,8.9-4,8.9-8.9S29.9,19.3,25,19.3z M19,25.1
	c1.2-2.3,3.5-3.8,6-3.8c3.4,0,6.3,2.6,6.6,6.1l0,0.3l-0.2,0.1c-0.5,0.4-1.1,0.5-1.7,0.5c-0.2,0-0.4,0-0.6,0
	c-1.1-0.1-2.5-0.7-3.8-1.2L25.1,27c-1.2-0.5-2.5-1.1-3.9-1.2c-0.6,0-1.1,0-1.6,0.1l-1,0.1L19,25.1z M31,31.2c-1.1,2.3-3.5,3.8-6,3.8
	c-3.5,0-6.3-2.6-6.7-6.1l0-0.4l0.2-0.1c0.5-0.4,0.9-0.5,1.5-0.5c0.2,0,0.4,0,0.6,0h0.1c1.1,0.1,2.5,0.7,3.8,1.2l0.4,0.2
	c1.2,0.6,2.5,1.1,4,1.2c0.5,0.1,1,0,1.5-0.1l1-0.2L31,31.2z M32.8,13c-0.6,0-1.1,0.5-1.1,1.1c0,0.6,0.5,1,1.1,1c0.6,0,1-0.5,1-1
	C33.9,13.5,33.4,13,32.8,13z M32.8,13c-0.6,0-1.1,0.5-1.1,1.1c0,0.6,0.5,1,1.1,1c0.6,0,1-0.5,1-1C33.9,13.5,33.4,13,32.8,13z
	 M25,19.3c-4.9,0-8.9,4-8.9,8.9s4,8.8,8.9,8.8c4.9,0,8.9-4,8.9-8.9S29.9,19.3,25,19.3z M19,25.1c1.2-2.3,3.5-3.8,6-3.8
	c3.4,0,6.3,2.6,6.6,6.1l0,0.3l-0.2,0.1c-0.5,0.4-1.1,0.5-1.7,0.5c-0.2,0-0.4,0-0.6,0c-1.1-0.1-2.5-0.7-3.8-1.2L25.1,27
	c-1.2-0.5-2.5-1.1-3.9-1.2c-0.6,0-1.1,0-1.6,0.1l-1,0.1L19,25.1z M31,31.2c-1.1,2.3-3.5,3.8-6,3.8c-3.5,0-6.3-2.6-6.7-6.1l0-0.4
	l0.2-0.1c0.5-0.4,0.9-0.5,1.5-0.5c0.2,0,0.4,0,0.6,0h0.1c1.1,0.1,2.5,0.7,3.8,1.2l0.4,0.2c1.2,0.6,2.5,1.1,4,1.2
	c0.5,0.1,1,0,1.5-0.1l1-0.2L31,31.2z M28.1,13c-0.6,0-1.1,0.5-1.1,1.1c0,0.6,0.5,1,1.1,1c0.5,0,1-0.5,1-1C29.2,13.5,28.7,13,28.1,13
	z M28.1,13c-0.6,0-1.1,0.5-1.1,1.1c0,0.6,0.5,1,1.1,1c0.5,0,1-0.5,1-1C29.2,13.5,28.7,13,28.1,13z M25,19.3c-4.9,0-8.9,4-8.9,8.9
	s4,8.8,8.9,8.8c4.9,0,8.9-4,8.9-8.9S29.9,19.3,25,19.3z M19,25.1c1.2-2.3,3.5-3.8,6-3.8c3.4,0,6.3,2.6,6.6,6.1l0,0.3l-0.2,0.1
	c-0.5,0.4-1.1,0.5-1.7,0.5c-0.2,0-0.4,0-0.6,0c-1.1-0.1-2.5-0.7-3.8-1.2L25.1,27c-1.2-0.5-2.5-1.1-3.9-1.2c-0.6,0-1.1,0-1.6,0.1
	l-1,0.1L19,25.1z M31,31.2c-1.1,2.3-3.5,3.8-6,3.8c-3.5,0-6.3-2.6-6.7-6.1l0-0.4l0.2-0.1c0.5-0.4,0.9-0.5,1.5-0.5c0.2,0,0.4,0,0.6,0
	h0.1c1.1,0.1,2.5,0.7,3.8,1.2l0.4,0.2c1.2,0.6,2.5,1.1,4,1.2c0.5,0.1,1,0,1.5-0.1l1-0.2L31,31.2z M32.8,13c-0.6,0-1.1,0.5-1.1,1.1
	c0,0.6,0.5,1,1.1,1c0.6,0,1-0.5,1-1C33.9,13.5,33.4,13,32.8,13z M32.8,13c-0.6,0-1.1,0.5-1.1,1.1c0,0.6,0.5,1,1.1,1c0.6,0,1-0.5,1-1
	C33.9,13.5,33.4,13,32.8,13z M25,19.3c-4.9,0-8.9,4-8.9,8.9s4,8.8,8.9,8.8c4.9,0,8.9-4,8.9-8.9S29.9,19.3,25,19.3z M19,25.1
	c1.2-2.3,3.5-3.8,6-3.8c3.4,0,6.3,2.6,6.6,6.1l0,0.3l-0.2,0.1c-0.5,0.4-1.1,0.5-1.7,0.5c-0.2,0-0.4,0-0.6,0
	c-1.1-0.1-2.5-0.7-3.8-1.2L25.1,27c-1.2-0.5-2.5-1.1-3.9-1.2c-0.6,0-1.1,0-1.6,0.1l-1,0.1L19,25.1z M31,31.2c-1.1,2.3-3.5,3.8-6,3.8
	c-3.5,0-6.3-2.6-6.7-6.1l0-0.4l0.2-0.1c0.5-0.4,0.9-0.5,1.5-0.5c0.2,0,0.4,0,0.6,0h0.1c1.1,0.1,2.5,0.7,3.8,1.2l0.4,0.2
	c1.2,0.6,2.5,1.1,4,1.2c0.5,0.1,1,0,1.5-0.1l1-0.2L31,31.2z M28.1,13c-0.6,0-1.1,0.5-1.1,1.1c0,0.6,0.5,1,1.1,1c0.5,0,1-0.5,1-1
	C29.2,13.5,28.7,13,28.1,13z M28.1,13c-0.6,0-1.1,0.5-1.1,1.1c0,0.6,0.5,1,1.1,1c0.5,0,1-0.5,1-1C29.2,13.5,28.7,13,28.1,13z
	 M25,19.3c-4.9,0-8.9,4-8.9,8.9s4,8.8,8.9,8.8c4.9,0,8.9-4,8.9-8.9S29.9,19.3,25,19.3z M19,25.1c1.2-2.3,3.5-3.8,6-3.8
	c3.4,0,6.3,2.6,6.6,6.1l0,0.3l-0.2,0.1c-0.5,0.4-1.1,0.5-1.7,0.5c-0.2,0-0.4,0-0.6,0c-1.1-0.1-2.5-0.7-3.8-1.2L25.1,27
	c-1.2-0.5-2.5-1.1-3.9-1.2c-0.6,0-1.1,0-1.6,0.1l-1,0.1L19,25.1z M31,31.2c-1.1,2.3-3.5,3.8-6,3.8c-3.5,0-6.3-2.6-6.7-6.1l0-0.4
	l0.2-0.1c0.5-0.4,0.9-0.5,1.5-0.5c0.2,0,0.4,0,0.6,0h0.1c1.1,0.1,2.5,0.7,3.8,1.2l0.4,0.2c1.2,0.6,2.5,1.1,4,1.2
	c0.5,0.1,1,0,1.5-0.1l1-0.2L31,31.2z M32.8,13c-0.6,0-1.1,0.5-1.1,1.1c0,0.6,0.5,1,1.1,1c0.6,0,1-0.5,1-1C33.9,13.5,33.4,13,32.8,13
	z M32.8,15.1c0.6,0,1-0.5,1-1c0-0.6-0.5-1.1-1-1.1c-0.6,0-1.1,0.5-1.1,1.1C31.8,14.7,32.3,15.1,32.8,15.1z M25,19.3
	c-4.9,0-8.9,4-8.9,8.9s4,8.8,8.9,8.8c4.9,0,8.9-4,8.9-8.9S29.9,19.3,25,19.3z M31,31.2c-1.1,2.3-3.5,3.8-6,3.8
	c-3.5,0-6.3-2.6-6.7-6.1l0-0.4l0.2-0.1c0.5-0.4,0.9-0.5,1.5-0.5c0.2,0,0.4,0,0.6,0h0.1c1.1,0.1,2.5,0.7,3.8,1.2l0.4,0.2
	c1.2,0.6,2.5,1.1,4,1.2c0.5,0.1,1,0,1.5-0.1l1-0.2L31,31.2z M31.7,27.8l-0.2,0.2c-0.5,0.4-1.1,0.5-1.7,0.5c-0.2,0-0.4,0-0.6-0.1
	c-1.1-0.1-2.5-0.7-3.8-1.2L25.1,27c-1.2-0.5-2.5-1.1-3.9-1.2c-0.6,0-1.1,0-1.6,0.1l-1,0.1l0.4-0.9c1.2-2.3,3.5-3.8,6-3.8
	c3.4,0,6.3,2.6,6.6,6.1L31.7,27.8z M28.1,15.1c0.6,0,1-0.5,1-1c0-0.6-0.5-1.1-1-1.1c-0.6,0-1.1,0.5-1.1,1.1
	C27.1,14.7,27.6,15.1,28.1,15.1z M9.9,6.8v36.5h30.3V6.8H9.9z M38,41.1H12V8.9h26V41.1z M32.8,15.1c0.6,0,1-0.5,1-1
	c0-0.6-0.5-1.1-1-1.1c-0.6,0-1.1,0.5-1.1,1.1C31.8,14.7,32.3,15.1,32.8,15.1z M25,37c4.9,0,8.9-4,8.9-8.9s-4-8.9-8.9-8.9
	c-4.9,0-8.9,4-8.9,8.9S20.1,37,25,37z M19,25.1c1.2-2.3,3.5-3.8,6-3.8c3.4,0,6.3,2.6,6.6,6.1l0,0.3l-0.2,0.1
	c-0.5,0.4-1.1,0.5-1.7,0.5c-0.2,0-0.4,0-0.6,0c-1.1-0.1-2.5-0.7-3.8-1.2L25.1,27c-1.2-0.5-2.5-1.1-3.9-1.2c-0.6,0-1.1,0-1.6,0.1
	l-1,0.1L19,25.1z M18.3,28.5l0.2-0.1c0.5-0.4,0.9-0.5,1.5-0.5c0.2,0,0.4,0,0.6,0h0.1c1.1,0.1,2.5,0.7,3.8,1.2l0.4,0.2
	c1.2,0.6,2.5,1.1,4,1.2c0.5,0.1,1,0,1.5-0.1l1-0.2L31,31.2c-1.1,2.3-3.5,3.8-6,3.8c-3.5,0-6.3-2.6-6.7-6.1L18.3,28.5z M28.1,15.1
	c0.6,0,1-0.5,1-1c0-0.6-0.5-1.1-1-1.1c-0.6,0-1.1,0.5-1.1,1.1C27.1,14.7,27.6,15.1,28.1,15.1z M28.1,13c-0.6,0-1.1,0.5-1.1,1.1
	c0,0.6,0.5,1,1.1,1c0.5,0,1-0.5,1-1C29.2,13.5,28.7,13,28.1,13z M25,19.3c-4.9,0-8.9,4-8.9,8.9s4,8.8,8.9,8.8c4.9,0,8.9-4,8.9-8.9
	S29.9,19.3,25,19.3z M19,25.1c1.2-2.3,3.5-3.8,6-3.8c3.4,0,6.3,2.6,6.6,6.1l0,0.3l-0.2,0.1c-0.5,0.4-1.1,0.5-1.7,0.5
	c-0.2,0-0.4,0-0.6,0c-1.1-0.1-2.5-0.7-3.8-1.2L25.1,27c-1.2-0.5-2.5-1.1-3.9-1.2c-0.6,0-1.1,0-1.6,0.1l-1,0.1L19,25.1z M31,31.2
	c-1.1,2.3-3.5,3.8-6,3.8c-3.5,0-6.3-2.6-6.7-6.1l0-0.4l0.2-0.1c0.5-0.4,0.9-0.5,1.5-0.5c0.2,0,0.4,0,0.6,0h0.1
	c1.1,0.1,2.5,0.7,3.8,1.2l0.4,0.2c1.2,0.6,2.5,1.1,4,1.2c0.5,0.1,1,0,1.5-0.1l1-0.2L31,31.2z M32.8,13c-0.6,0-1.1,0.5-1.1,1.1
	c0,0.6,0.5,1,1.1,1c0.6,0,1-0.5,1-1C33.9,13.5,33.4,13,32.8,13z M32.8,13c-0.6,0-1.1,0.5-1.1,1.1c0,0.6,0.5,1,1.1,1c0.6,0,1-0.5,1-1
	C33.9,13.5,33.4,13,32.8,13z M25,19.3c-4.9,0-8.9,4-8.9,8.9s4,8.8,8.9,8.8c4.9,0,8.9-4,8.9-8.9S29.9,19.3,25,19.3z M19,25.1
	c1.2-2.3,3.5-3.8,6-3.8c3.4,0,6.3,2.6,6.6,6.1l0,0.3l-0.2,0.1c-0.5,0.4-1.1,0.5-1.7,0.5c-0.2,0-0.4,0-0.6,0
	c-1.1-0.1-2.5-0.7-3.8-1.2L25.1,27c-1.2-0.5-2.5-1.1-3.9-1.2c-0.6,0-1.1,0-1.6,0.1l-1,0.1L19,25.1z M31,31.2c-1.1,2.3-3.5,3.8-6,3.8
	c-3.5,0-6.3-2.6-6.7-6.1l0-0.4l0.2-0.1c0.5-0.4,0.9-0.5,1.5-0.5c0.2,0,0.4,0,0.6,0h0.1c1.1,0.1,2.5,0.7,3.8,1.2l0.4,0.2
	c1.2,0.6,2.5,1.1,4,1.2c0.5,0.1,1,0,1.5-0.1l1-0.2L31,31.2z M28.1,13c-0.6,0-1.1,0.5-1.1,1.1c0,0.6,0.5,1,1.1,1c0.5,0,1-0.5,1-1
	C29.2,13.5,28.7,13,28.1,13z M28.1,13c-0.6,0-1.1,0.5-1.1,1.1c0,0.6,0.5,1,1.1,1c0.5,0,1-0.5,1-1C29.2,13.5,28.7,13,28.1,13z
	 M25,19.3c-4.9,0-8.9,4-8.9,8.9s4,8.8,8.9,8.8c4.9,0,8.9-4,8.9-8.9S29.9,19.3,25,19.3z M19,25.1c1.2-2.3,3.5-3.8,6-3.8
	c3.4,0,6.3,2.6,6.6,6.1l0,0.3l-0.2,0.1c-0.5,0.4-1.1,0.5-1.7,0.5c-0.2,0-0.4,0-0.6,0c-1.1-0.1-2.5-0.7-3.8-1.2L25.1,27
	c-1.2-0.5-2.5-1.1-3.9-1.2c-0.6,0-1.1,0-1.6,0.1l-1,0.1L19,25.1z M31,31.2c-1.1,2.3-3.5,3.8-6,3.8c-3.5,0-6.3-2.6-6.7-6.1l0-0.4
	l0.2-0.1c0.5-0.4,0.9-0.5,1.5-0.5c0.2,0,0.4,0,0.6,0h0.1c1.1,0.1,2.5,0.7,3.8,1.2l0.4,0.2c1.2,0.6,2.5,1.1,4,1.2
	c0.5,0.1,1,0,1.5-0.1l1-0.2L31,31.2z M32.8,13c-0.6,0-1.1,0.5-1.1,1.1c0,0.6,0.5,1,1.1,1c0.6,0,1-0.5,1-1C33.9,13.5,33.4,13,32.8,13
	z M32.8,13c-0.6,0-1.1,0.5-1.1,1.1c0,0.6,0.5,1,1.1,1c0.6,0,1-0.5,1-1C33.9,13.5,33.4,13,32.8,13z M25,19.3c-4.9,0-8.9,4-8.9,8.9
	s4,8.8,8.9,8.8c4.9,0,8.9-4,8.9-8.9S29.9,19.3,25,19.3z M19,25.1c1.2-2.3,3.5-3.8,6-3.8c3.4,0,6.3,2.6,6.6,6.1l0,0.3l-0.2,0.1
	c-0.5,0.4-1.1,0.5-1.7,0.5c-0.2,0-0.4,0-0.6,0c-1.1-0.1-2.5-0.7-3.8-1.2L25.1,27c-1.2-0.5-2.5-1.1-3.9-1.2c-0.6,0-1.1,0-1.6,0.1
	l-1,0.1L19,25.1z M31,31.2c-1.1,2.3-3.5,3.8-6,3.8c-3.5,0-6.3-2.6-6.7-6.1l0-0.4l0.2-0.1c0.5-0.4,0.9-0.5,1.5-0.5c0.2,0,0.4,0,0.6,0
	h0.1c1.1,0.1,2.5,0.7,3.8,1.2l0.4,0.2c1.2,0.6,2.5,1.1,4,1.2c0.5,0.1,1,0,1.5-0.1l1-0.2L31,31.2z M28.1,13c-0.6,0-1.1,0.5-1.1,1.1
	c0,0.6,0.5,1,1.1,1c0.5,0,1-0.5,1-1C29.2,13.5,28.7,13,28.1,13z M28.1,13c-0.6,0-1.1,0.5-1.1,1.1c0,0.6,0.5,1,1.1,1c0.5,0,1-0.5,1-1
	C29.2,13.5,28.7,13,28.1,13z M25,19.3c-4.9,0-8.9,4-8.9,8.9s4,8.8,8.9,8.8c4.9,0,8.9-4,8.9-8.9S29.9,19.3,25,19.3z M19,25.1
	c1.2-2.3,3.5-3.8,6-3.8c3.4,0,6.3,2.6,6.6,6.1l0,0.3l-0.2,0.1c-0.5,0.4-1.1,0.5-1.7,0.5c-0.2,0-0.4,0-0.6,0
	c-1.1-0.1-2.5-0.7-3.8-1.2L25.1,27c-1.2-0.5-2.5-1.1-3.9-1.2c-0.6,0-1.1,0-1.6,0.1l-1,0.1L19,25.1z M31,31.2c-1.1,2.3-3.5,3.8-6,3.8
	c-3.5,0-6.3-2.6-6.7-6.1l0-0.4l0.2-0.1c0.5-0.4,0.9-0.5,1.5-0.5c0.2,0,0.4,0,0.6,0h0.1c1.1,0.1,2.5,0.7,3.8,1.2l0.4,0.2
	c1.2,0.6,2.5,1.1,4,1.2c0.5,0.1,1,0,1.5-0.1l1-0.2L31,31.2z M32.8,13c-0.6,0-1.1,0.5-1.1,1.1c0,0.6,0.5,1,1.1,1c0.6,0,1-0.5,1-1
	C33.9,13.5,33.4,13,32.8,13z M32.8,13c-0.6,0-1.1,0.5-1.1,1.1c0,0.6,0.5,1,1.1,1c0.6,0,1-0.5,1-1C33.9,13.5,33.4,13,32.8,13z
	 M25,19.3c-4.9,0-8.9,4-8.9,8.9s4,8.8,8.9,8.8c4.9,0,8.9-4,8.9-8.9S29.9,19.3,25,19.3z M19,25.1c1.2-2.3,3.5-3.8,6-3.8
	c3.4,0,6.3,2.6,6.6,6.1l0,0.3l-0.2,0.1c-0.5,0.4-1.1,0.5-1.7,0.5c-0.2,0-0.4,0-0.6,0c-1.1-0.1-2.5-0.7-3.8-1.2L25.1,27
	c-1.2-0.5-2.5-1.1-3.9-1.2c-0.6,0-1.1,0-1.6,0.1l-1,0.1L19,25.1z M31,31.2c-1.1,2.3-3.5,3.8-6,3.8c-3.5,0-6.3-2.6-6.7-6.1l0-0.4
	l0.2-0.1c0.5-0.4,0.9-0.5,1.5-0.5c0.2,0,0.4,0,0.6,0h0.1c1.1,0.1,2.5,0.7,3.8,1.2l0.4,0.2c1.2,0.6,2.5,1.1,4,1.2
	c0.5,0.1,1,0,1.5-0.1l1-0.2L31,31.2z M28.1,13c-0.6,0-1.1,0.5-1.1,1.1c0,0.6,0.5,1,1.1,1c0.5,0,1-0.5,1-1C29.2,13.5,28.7,13,28.1,13
	z"/>
</svg>
