<svg width="50" height="50" viewBox="0 0 50 50" fill="none" xmlns="http://www.w3.org/2000/svg">
<path d="M25.0002 19.2501C20.1001 19.2501 16.1001 23.2501 16.1001 28.1501C16.1001 33.0501 20.1001 37.0001 25.0002 37.0001C29.9002 37.0001 33.9002 33.0001 33.9002 28.1001C33.9002 23.2001 29.9002 19.2501 25.0002 19.2501ZM19.0001 25.1001C20.1501 22.8001 22.4501 21.3501 25.0002 21.3501C28.4502 21.3501 31.3002 23.9501 31.6502 27.4001L31.7002 27.7001L31.4502 27.8501C30.9002 28.2501 30.3502 28.3501 29.8001 28.3501C29.6002 28.3501 29.4002 28.3501 29.2002 28.3001C28.1002 28.2001 26.7002 27.6001 25.4502 27.1001L25.0501 27.0001C23.8001 26.4501 22.5501 25.9001 21.1002 25.7501C20.5501 25.7001 20.0501 25.7501 19.5501 25.8501L18.5501 26.0001L19.0001 25.1001ZM31.0002 31.1501C29.8502 33.4501 27.5502 34.9001 25.0002 34.9001C21.5501 34.9001 18.7001 32.3001 18.3501 28.8501L18.3001 28.5001L18.5501 28.3501C19.0501 28.0001 19.5001 27.8501 20.0501 27.8001C20.2501 27.8001 20.4501 27.8001 20.6501 27.8501H20.8001C21.9001 27.9501 23.3501 28.5501 24.5501 29.0501L24.9502 29.2501C26.2002 29.8001 27.4502 30.3501 28.9002 30.5001C29.4002 30.5501 29.9502 30.5001 30.4502 30.4001L31.4002 30.2501L31.0002 31.1501ZM32.8002 13.0001C32.2002 13.0001 31.7502 13.5001 31.7502 14.0501C31.7502 14.6501 32.2502 15.1001 32.8002 15.1001C33.4002 15.1001 33.8502 14.6001 33.8502 14.0501C33.9002 13.5001 33.4002 13.0001 32.8002 13.0001ZM28.1002 13.0001C27.5002 13.0001 27.0501 13.5001 27.0501 14.0501C27.0501 14.6501 27.5502 15.1001 28.1002 15.1001C28.6502 15.1001 29.1502 14.6001 29.1502 14.0501C29.2002 13.5001 28.7002 13.0001 28.1002 13.0001ZM32.8002 13.0001C32.2002 13.0001 31.7502 13.5001 31.7502 14.0501C31.7502 14.6501 32.2502 15.1001 32.8002 15.1001C33.4002 15.1001 33.8502 14.6001 33.8502 14.0501C33.9002 13.5001 33.4002 13.0001 32.8002 13.0001ZM25.0002 19.2501C20.1001 19.2501 16.1001 23.2501 16.1001 28.1501C16.1001 33.0501 20.1001 37.0001 25.0002 37.0001C29.9002 37.0001 33.9002 33.0001 33.9002 28.1001C33.9002 23.2001 29.9002 19.2501 25.0002 19.2501ZM19.0001 25.1001C20.1501 22.8001 22.4501 21.3501 25.0002 21.3501C28.4502 21.3501 31.3002 23.9501 31.6502 27.4001L31.7002 27.7001L31.4502 27.8501C30.9002 28.2501 30.3502 28.3501 29.8001 28.3501C29.6002 28.3501 29.4002 28.3501 29.2002 28.3001C28.1002 28.2001 26.7002 27.6001 25.4502 27.1001L25.0501 27.0001C23.8001 26.4501 22.5501 25.9001 21.1002 25.7501C20.5501 25.7001 20.0501 25.7501 19.5501 25.8501L18.5501 26.0001L19.0001 25.1001ZM31.0002 31.1501C29.8502 33.4501 27.5502 34.9001 25.0002 34.9001C21.5501 34.9001 18.7001 32.3001 18.3501 28.8501L18.3001 28.5001L18.5501 28.3501C19.0501 28.0001 19.5001 27.8501 20.0501 27.8001C20.2501 27.8001 20.4501 27.8001 20.6501 27.8501H20.8001C21.9001 27.9501 23.3501 28.5501 24.5501 29.0501L24.9502 29.2501C26.2002 29.8001 27.4502 30.3501 28.9002 30.5001C29.4002 30.5501 29.9502 30.5001 30.4502 30.4001L31.4002 30.2501L31.0002 31.1501ZM28.1002 13.0001C27.5002 13.0001 27.0501 13.5001 27.0501 14.0501C27.0501 14.6501 27.5502 15.1001 28.1002 15.1001C28.6502 15.1001 29.1502 14.6001 29.1502 14.0501C29.2002 13.5001 28.7002 13.0001 28.1002 13.0001ZM28.1002 13.0001C27.5002 13.0001 27.0501 13.5001 27.0501 14.0501C27.0501 14.6501 27.5502 15.1001 28.1002 15.1001C28.6502 15.1001 29.1502 14.6001 29.1502 14.0501C29.2002 13.5001 28.7002 13.0001 28.1002 13.0001ZM25.0002 19.2501C20.1001 19.2501 16.1001 23.2501 16.1001 28.1501C16.1001 33.0501 20.1001 37.0001 25.0002 37.0001C29.9002 37.0001 33.9002 33.0001 33.9002 28.1001C33.9002 23.2001 29.9002 19.2501 25.0002 19.2501ZM19.0001 25.1001C20.1501 22.8001 22.4501 21.3501 25.0002 21.3501C28.4502 21.3501 31.3002 23.9501 31.6502 27.4001L31.7002 27.7001L31.4502 27.8501C30.9002 28.2501 30.3502 28.3501 29.8001 28.3501C29.6002 28.3501 29.4002 28.3501 29.2002 28.3001C28.1002 28.2001 26.7002 27.6001 25.4502 27.1001L25.0501 27.0001C23.8001 26.4501 22.5501 25.9001 21.1002 25.7501C20.5501 25.7001 20.0501 25.7501 19.5501 25.8501L18.5501 26.0001L19.0001 25.1001ZM31.0002 31.1501C29.8502 33.4501 27.5502 34.9001 25.0002 34.9001C21.5501 34.9001 18.7001 32.3001 18.3501 28.8501L18.3001 28.5001L18.5501 28.3501C19.0501 28.0001 19.5001 27.8501 20.0501 27.8001C20.2501 27.8001 20.4501 27.8001 20.6501 27.8501H20.8001C21.9001 27.9501 23.3501 28.5501 24.5501 29.0501L24.9502 29.2501C26.2002 29.8001 27.4502 30.3501 28.9002 30.5001C29.4002 30.5501 29.9502 30.5001 30.4502 30.4001L31.4002 30.2501L31.0002 31.1501ZM32.8002 13.0001C32.2002 13.0001 31.7502 13.5001 31.7502 14.0501C31.7502 14.6501 32.2502 15.1001 32.8002 15.1001C33.4002 15.1001 33.8502 14.6001 33.8502 14.0501C33.9002 13.5001 33.4002 13.0001 32.8002 13.0001ZM32.8002 13.0001C32.2002 13.0001 31.7502 13.5001 31.7502 14.0501C31.7502 14.6501 32.2502 15.1001 32.8002 15.1001C33.4002 15.1001 33.8502 14.6001 33.8502 14.0501C33.9002 13.5001 33.4002 13.0001 32.8002 13.0001ZM25.0002 19.2501C20.1001 19.2501 16.1001 23.2501 16.1001 28.1501C16.1001 33.0501 20.1001 37.0001 25.0002 37.0001C29.9002 37.0001 33.9002 33.0001 33.9002 28.1001C33.9002 23.2001 29.9002 19.2501 25.0002 19.2501ZM19.0001 25.1001C20.1501 22.8001 22.4501 21.3501 25.0002 21.3501C28.4502 21.3501 31.3002 23.9501 31.6502 27.4001L31.7002 27.7001L31.4502 27.8501C30.9002 28.2501 30.3502 28.3501 29.8001 28.3501C29.6002 28.3501 29.4002 28.3501 29.2002 28.3001C28.1002 28.2001 26.7002 27.6001 25.4502 27.1001L25.0501 27.0001C23.8001 26.4501 22.5501 25.9001 21.1002 25.7501C20.5501 25.7001 20.0501 25.7501 19.5501 25.8501L18.5501 26.0001L19.0001 25.1001ZM31.0002 31.1501C29.8502 33.4501 27.5502 34.9001 25.0002 34.9001C21.5501 34.9001 18.7001 32.3001 18.3501 28.8501L18.3001 28.5001L18.5501 28.3501C19.0501 28.0001 19.5001 27.8501 20.0501 27.8001C20.2501 27.8001 20.4501 27.8001 20.6501 27.8501H20.8001C21.9001 27.9501 23.3501 28.5501 24.5501 29.0501L24.9502 29.2501C26.2002 29.8001 27.4502 30.3501 28.9002 30.5001C29.4002 30.5501 29.9502 30.5001 30.4502 30.4001L31.4002 30.2501L31.0002 31.1501ZM28.1002 13.0001C27.5002 13.0001 27.0501 13.5001 27.0501 14.0501C27.0501 14.6501 27.5502 15.1001 28.1002 15.1001C28.6502 15.1001 29.1502 14.6001 29.1502 14.0501C29.2002 13.5001 28.7002 13.0001 28.1002 13.0001ZM28.1002 13.0001C27.5002 13.0001 27.0501 13.5001 27.0501 14.0501C27.0501 14.6501 27.5502 15.1001 28.1002 15.1001C28.6502 15.1001 29.1502 14.6001 29.1502 14.0501C29.2002 13.5001 28.7002 13.0001 28.1002 13.0001ZM25.0002 19.2501C20.1001 19.2501 16.1001 23.2501 16.1001 28.1501C16.1001 33.0501 20.1001 37.0001 25.0002 37.0001C29.9002 37.0001 33.9002 33.0001 33.9002 28.1001C33.9002 23.2001 29.9002 19.2501 25.0002 19.2501ZM19.0001 25.1001C20.1501 22.8001 22.4501 21.3501 25.0002 21.3501C28.4502 21.3501 31.3002 23.9501 31.6502 27.4001L31.7002 27.7001L31.4502 27.8501C30.9002 28.2501 30.3502 28.3501 29.8001 28.3501C29.6002 28.3501 29.4002 28.3501 29.2002 28.3001C28.1002 28.2001 26.7002 27.6001 25.4502 27.1001L25.0501 27.0001C23.8001 26.4501 22.5501 25.9001 21.1002 25.7501C20.5501 25.7001 20.0501 25.7501 19.5501 25.8501L18.5501 26.0001L19.0001 25.1001ZM31.0002 31.1501C29.8502 33.4501 27.5502 34.9001 25.0002 34.9001C21.5501 34.9001 18.7001 32.3001 18.3501 28.8501L18.3001 28.5001L18.5501 28.3501C19.0501 28.0001 19.5001 27.8501 20.0501 27.8001C20.2501 27.8001 20.4501 27.8001 20.6501 27.8501H20.8001C21.9001 27.9501 23.3501 28.5501 24.5501 29.0501L24.9502 29.2501C26.2002 29.8001 27.4502 30.3501 28.9002 30.5001C29.4002 30.5501 29.9502 30.5001 30.4502 30.4001L31.4002 30.2501L31.0002 31.1501ZM32.8002 13.0001C32.2002 13.0001 31.7502 13.5001 31.7502 14.0501C31.7502 14.6501 32.2502 15.1001 32.8002 15.1001C33.4002 15.1001 33.8502 14.6001 33.8502 14.0501C33.9002 13.5001 33.4002 13.0001 32.8002 13.0001ZM32.8002 13.0001C32.2002 13.0001 31.7502 13.5001 31.7502 14.0501C31.7502 14.6501 32.2502 15.1001 32.8002 15.1001C33.4002 15.1001 33.8502 14.6001 33.8502 14.0501C33.9002 13.5001 33.4002 13.0001 32.8002 13.0001ZM25.0002 19.2501C20.1001 19.2501 16.1001 23.2501 16.1001 28.1501C16.1001 33.0501 20.1001 37.0001 25.0002 37.0001C29.9002 37.0001 33.9002 33.0001 33.9002 28.1001C33.9002 23.2001 29.9002 19.2501 25.0002 19.2501ZM19.0001 25.1001C20.1501 22.8001 22.4501 21.3501 25.0002 21.3501C28.4502 21.3501 31.3002 23.9501 31.6502 27.4001L31.7002 27.7001L31.4502 27.8501C30.9002 28.2501 30.3502 28.3501 29.8001 28.3501C29.6002 28.3501 29.4002 28.3501 29.2002 28.3001C28.1002 28.2001 26.7002 27.6001 25.4502 27.1001L25.0501 27.0001C23.8001 26.4501 22.5501 25.9001 21.1002 25.7501C20.5501 25.7001 20.0501 25.7501 19.5501 25.8501L18.5501 26.0001L19.0001 25.1001ZM31.0002 31.1501C29.8502 33.4501 27.5502 34.9001 25.0002 34.9001C21.5501 34.9001 18.7001 32.3001 18.3501 28.8501L18.3001 28.5001L18.5501 28.3501C19.0501 28.0001 19.5001 27.8501 20.0501 27.8001C20.2501 27.8001 20.4501 27.8001 20.6501 27.8501H20.8001C21.9001 27.9501 23.3501 28.5501 24.5501 29.0501L24.9502 29.2501C26.2002 29.8001 27.4502 30.3501 28.9002 30.5001C29.4002 30.5501 29.9502 30.5001 30.4502 30.4001L31.4002 30.2501L31.0002 31.1501ZM28.1002 13.0001C27.5002 13.0001 27.0501 13.5001 27.0501 14.0501C27.0501 14.6501 27.5502 15.1001 28.1002 15.1001C28.6502 15.1001 29.1502 14.6001 29.1502 14.0501C29.2002 13.5001 28.7002 13.0001 28.1002 13.0001ZM28.1002 13.0001C27.5002 13.0001 27.0501 13.5001 27.0501 14.0501C27.0501 14.6501 27.5502 15.1001 28.1002 15.1001C28.6502 15.1001 29.1502 14.6001 29.1502 14.0501C29.2002 13.5001 28.7002 13.0001 28.1002 13.0001ZM25.0002 19.2501C20.1001 19.2501 16.1001 23.2501 16.1001 28.1501C16.1001 33.0501 20.1001 37.0001 25.0002 37.0001C29.9002 37.0001 33.9002 33.0001 33.9002 28.1001C33.9002 23.2001 29.9002 19.2501 25.0002 19.2501ZM19.0001 25.1001C20.1501 22.8001 22.4501 21.3501 25.0002 21.3501C28.4502 21.3501 31.3002 23.9501 31.6502 27.4001L31.7002 27.7001L31.4502 27.8501C30.9002 28.2501 30.3502 28.3501 29.8001 28.3501C29.6002 28.3501 29.4002 28.3501 29.2002 28.3001C28.1002 28.2001 26.7002 27.6001 25.4502 27.1001L25.0501 27.0001C23.8001 26.4501 22.5501 25.9001 21.1002 25.7501C20.5501 25.7001 20.0501 25.7501 19.5501 25.8501L18.5501 26.0001L19.0001 25.1001ZM31.0002 31.1501C29.8502 33.4501 27.5502 34.9001 25.0002 34.9001C21.5501 34.9001 18.7001 32.3001 18.3501 28.8501L18.3001 28.5001L18.5501 28.3501C19.0501 28.0001 19.5001 27.8501 20.0501 27.8001C20.2501 27.8001 20.4501 27.8001 20.6501 27.8501H20.8001C21.9001 27.9501 23.3501 28.5501 24.5501 29.0501L24.9502 29.2501C26.2002 29.8001 27.4502 30.3501 28.9002 30.5001C29.4002 30.5501 29.9502 30.5001 30.4502 30.4001L31.4002 30.2501L31.0002 31.1501ZM32.8002 13.0001C32.2002 13.0001 31.7502 13.5001 31.7502 14.0501C31.7502 14.6501 32.2502 15.1001 32.8002 15.1001C33.4002 15.1001 33.8502 14.6001 33.8502 14.0501C33.9002 13.5001 33.4002 13.0001 32.8002 13.0001ZM32.8002 15.1001C33.4002 15.1001 33.8502 14.6001 33.8502 14.0501C33.8502 13.4501 33.3502 13.0001 32.8002 13.0001C32.2002 13.0001 31.7502 13.5001 31.7502 14.0501C31.7502 14.6501 32.2502 15.1001 32.8002 15.1001ZM25.0002 19.2501C20.1001 19.2501 16.1001 23.2501 16.1001 28.1501C16.1001 33.0501 20.1001 37.0001 25.0002 37.0001C29.9002 37.0001 33.9002 33.0001 33.9002 28.1001C33.9002 23.2001 29.9002 19.2501 25.0002 19.2501ZM31.0002 31.1501C29.8502 33.4501 27.5502 34.9001 25.0002 34.9001C21.5501 34.9001 18.7001 32.3001 18.3501 28.8501L18.3001 28.5001L18.5501 28.3501C19.0501 28.0001 19.5001 27.8501 20.0501 27.8001C20.2501 27.8001 20.4501 27.8001 20.6501 27.8501H20.8001C21.9001 27.9501 23.3501 28.5501 24.5501 29.0501L24.9502 29.2501C26.2002 29.8001 27.4502 30.3501 28.9002 30.5001C29.4002 30.5501 29.9502 30.5001 30.4502 30.4001L31.4002 30.2501L31.0002 31.1501ZM31.7002 27.7501L31.4502 27.9001C30.9002 28.3001 30.3502 28.4001 29.8001 28.4001C29.6002 28.4001 29.4002 28.4001 29.2002 28.3501C28.1002 28.2501 26.7002 27.6501 25.4502 27.1501L25.0501 27.0001C23.8001 26.4501 22.5501 25.9001 21.1002 25.7501C20.5501 25.7001 20.0501 25.7501 19.5501 25.8501L18.5501 26.0001L19.0001 25.1001C20.1501 22.8001 22.4501 21.3501 25.0002 21.3501C28.4502 21.3501 31.3002 23.9501 31.6502 27.4001L31.7002 27.7501ZM28.1002 15.1001C28.7002 15.1001 29.1502 14.6001 29.1502 14.0501C29.1502 13.4501 28.6502 13.0001 28.1002 13.0001C27.5502 13.0001 27.0501 13.5001 27.0501 14.0501C27.0501 14.6501 27.5502 15.1001 28.1002 15.1001ZM9.90015 6.75012V43.2501H40.1502V6.75012H9.90015ZM38.0002 41.1001H12.0001V8.90012H38.0002V41.1001ZM32.8002 15.1001C33.4002 15.1001 33.8502 14.6001 33.8502 14.0501C33.8502 13.4501 33.3502 13.0001 32.8002 13.0001C32.2002 13.0001 31.7502 13.5001 31.7502 14.0501C31.7502 14.6501 32.2502 15.1001 32.8002 15.1001ZM25.0002 37.0001C29.9002 37.0001 33.9002 33.0001 33.9002 28.1001C33.9002 23.2001 29.9002 19.2001 25.0002 19.2001C20.1001 19.2001 16.1001 23.2001 16.1001 28.1001C16.1001 33.0001 20.1001 37.0001 25.0002 37.0001ZM19.0001 25.1001C20.1501 22.8001 22.4501 21.3501 25.0002 21.3501C28.4502 21.3501 31.3002 23.9501 31.6502 27.4001L31.7002 27.7001L31.4502 27.8501C30.9002 28.2501 30.3502 28.3501 29.8001 28.3501C29.6002 28.3501 29.4002 28.3501 29.2002 28.3001C28.1002 28.2001 26.7002 27.6001 25.4502 27.1001L25.0501 27.0001C23.8001 26.4501 22.5501 25.9001 21.1002 25.7501C20.5501 25.7001 20.0501 25.7501 19.5501 25.8501L18.5501 26.0001L19.0001 25.1001ZM18.3001 28.5001L18.5501 28.3501C19.0501 28.0001 19.5001 27.8501 20.0501 27.8001C20.2501 27.8001 20.4501 27.8001 20.6501 27.8501H20.8001C21.9001 27.9501 23.3501 28.5501 24.5501 29.0501L24.9502 29.2501C26.2002 29.8001 27.4502 30.3501 28.9002 30.5001C29.4002 30.5501 29.9502 30.5001 30.4502 30.4001L31.4002 30.2501L31.0002 31.1501C29.8502 33.4501 27.5502 34.9001 25.0002 34.9001C21.5501 34.9001 18.7001 32.3001 18.3501 28.8501L18.3001 28.5001ZM28.1002 15.1001C28.7002 15.1001 29.1502 14.6001 29.1502 14.0501C29.1502 13.4501 28.6502 13.0001 28.1002 13.0001C27.5502 13.0001 27.0501 13.5001 27.0501 14.0501C27.0501 14.6501 27.5502 15.1001 28.1002 15.1001ZM28.1002 13.0001C27.5002 13.0001 27.0501 13.5001 27.0501 14.0501C27.0501 14.6501 27.5502 15.1001 28.1002 15.1001C28.6502 15.1001 29.1502 14.6001 29.1502 14.0501C29.2002 13.5001 28.7002 13.0001 28.1002 13.0001ZM25.0002 19.2501C20.1001 19.2501 16.1001 23.2501 16.1001 28.1501C16.1001 33.0501 20.1001 37.0001 25.0002 37.0001C29.9002 37.0001 33.9002 33.0001 33.9002 28.1001C33.9002 23.2001 29.9002 19.2501 25.0002 19.2501ZM19.0001 25.1001C20.1501 22.8001 22.4501 21.3501 25.0002 21.3501C28.4502 21.3501 31.3002 23.9501 31.6502 27.4001L31.7002 27.7001L31.4502 27.8501C30.9002 28.2501 30.3502 28.3501 29.8001 28.3501C29.6002 28.3501 29.4002 28.3501 29.2002 28.3001C28.1002 28.2001 26.7002 27.6001 25.4502 27.1001L25.0501 27.0001C23.8001 26.4501 22.5501 25.9001 21.1002 25.7501C20.5501 25.7001 20.0501 25.7501 19.5501 25.8501L18.5501 26.0001L19.0001 25.1001ZM31.0002 31.1501C29.8502 33.4501 27.5502 34.9001 25.0002 34.9001C21.5501 34.9001 18.7001 32.3001 18.3501 28.8501L18.3001 28.5001L18.5501 28.3501C19.0501 28.0001 19.5001 27.8501 20.0501 27.8001C20.2501 27.8001 20.4501 27.8001 20.6501 27.8501H20.8001C21.9001 27.9501 23.3501 28.5501 24.5501 29.0501L24.9502 29.2501C26.2002 29.8001 27.4502 30.3501 28.9002 30.5001C29.4002 30.5501 29.9502 30.5001 30.4502 30.4001L31.4002 30.2501L31.0002 31.1501ZM32.8002 13.0001C32.2002 13.0001 31.7502 13.5001 31.7502 14.0501C31.7502 14.6501 32.2502 15.1001 32.8002 15.1001C33.4002 15.1001 33.8502 14.6001 33.8502 14.0501C33.9002 13.5001 33.4002 13.0001 32.8002 13.0001ZM32.8002 13.0001C32.2002 13.0001 31.7502 13.5001 31.7502 14.0501C31.7502 14.6501 32.2502 15.1001 32.8002 15.1001C33.4002 15.1001 33.8502 14.6001 33.8502 14.0501C33.9002 13.5001 33.4002 13.0001 32.8002 13.0001ZM25.0002 19.2501C20.1001 19.2501 16.1001 23.2501 16.1001 28.1501C16.1001 33.0501 20.1001 37.0001 25.0002 37.0001C29.9002 37.0001 33.9002 33.0001 33.9002 28.1001C33.9002 23.2001 29.9002 19.2501 25.0002 19.2501ZM19.0001 25.1001C20.1501 22.8001 22.4501 21.3501 25.0002 21.3501C28.4502 21.3501 31.3002 23.9501 31.6502 27.4001L31.7002 27.7001L31.4502 27.8501C30.9002 28.2501 30.3502 28.3501 29.8001 28.3501C29.6002 28.3501 29.4002 28.3501 29.2002 28.3001C28.1002 28.2001 26.7002 27.6001 25.4502 27.1001L25.0501 27.0001C23.8001 26.4501 22.5501 25.9001 21.1002 25.7501C20.5501 25.7001 20.0501 25.7501 19.5501 25.8501L18.5501 26.0001L19.0001 25.1001ZM31.0002 31.1501C29.8502 33.4501 27.5502 34.9001 25.0002 34.9001C21.5501 34.9001 18.7001 32.3001 18.3501 28.8501L18.3001 28.5001L18.5501 28.3501C19.0501 28.0001 19.5001 27.8501 20.0501 27.8001C20.2501 27.8001 20.4501 27.8001 20.6501 27.8501H20.8001C21.9001 27.9501 23.3501 28.5501 24.5501 29.0501L24.9502 29.2501C26.2002 29.8001 27.4502 30.3501 28.9002 30.5001C29.4002 30.5501 29.9502 30.5001 30.4502 30.4001L31.4002 30.2501L31.0002 31.1501ZM28.1002 13.0001C27.5002 13.0001 27.0501 13.5001 27.0501 14.0501C27.0501 14.6501 27.5502 15.1001 28.1002 15.1001C28.6502 15.1001 29.1502 14.6001 29.1502 14.0501C29.2002 13.5001 28.7002 13.0001 28.1002 13.0001ZM28.1002 13.0001C27.5002 13.0001 27.0501 13.5001 27.0501 14.0501C27.0501 14.6501 27.5502 15.1001 28.1002 15.1001C28.6502 15.1001 29.1502 14.6001 29.1502 14.0501C29.2002 13.5001 28.7002 13.0001 28.1002 13.0001ZM25.0002 19.2501C20.1001 19.2501 16.1001 23.2501 16.1001 28.1501C16.1001 33.0501 20.1001 37.0001 25.0002 37.0001C29.9002 37.0001 33.9002 33.0001 33.9002 28.1001C33.9002 23.2001 29.9002 19.2501 25.0002 19.2501ZM19.0001 25.1001C20.1501 22.8001 22.4501 21.3501 25.0002 21.3501C28.4502 21.3501 31.3002 23.9501 31.6502 27.4001L31.7002 27.7001L31.4502 27.8501C30.9002 28.2501 30.3502 28.3501 29.8001 28.3501C29.6002 28.3501 29.4002 28.3501 29.2002 28.3001C28.1002 28.2001 26.7002 27.6001 25.4502 27.1001L25.0501 27.0001C23.8001 26.4501 22.5501 25.9001 21.1002 25.7501C20.5501 25.7001 20.0501 25.7501 19.5501 25.8501L18.5501 26.0001L19.0001 25.1001ZM31.0002 31.1501C29.8502 33.4501 27.5502 34.9001 25.0002 34.9001C21.5501 34.9001 18.7001 32.3001 18.3501 28.8501L18.3001 28.5001L18.5501 28.3501C19.0501 28.0001 19.5001 27.8501 20.0501 27.8001C20.2501 27.8001 20.4501 27.8001 20.6501 27.8501H20.8001C21.9001 27.9501 23.3501 28.5501 24.5501 29.0501L24.9502 29.2501C26.2002 29.8001 27.4502 30.3501 28.9002 30.5001C29.4002 30.5501 29.9502 30.5001 30.4502 30.4001L31.4002 30.2501L31.0002 31.1501ZM32.8002 13.0001C32.2002 13.0001 31.7502 13.5001 31.7502 14.0501C31.7502 14.6501 32.2502 15.1001 32.8002 15.1001C33.4002 15.1001 33.8502 14.6001 33.8502 14.0501C33.9002 13.5001 33.4002 13.0001 32.8002 13.0001ZM32.8002 13.0001C32.2002 13.0001 31.7502 13.5001 31.7502 14.0501C31.7502 14.6501 32.2502 15.1001 32.8002 15.1001C33.4002 15.1001 33.8502 14.6001 33.8502 14.0501C33.9002 13.5001 33.4002 13.0001 32.8002 13.0001ZM25.0002 19.2501C20.1001 19.2501 16.1001 23.2501 16.1001 28.1501C16.1001 33.0501 20.1001 37.0001 25.0002 37.0001C29.9002 37.0001 33.9002 33.0001 33.9002 28.1001C33.9002 23.2001 29.9002 19.2501 25.0002 19.2501ZM19.0001 25.1001C20.1501 22.8001 22.4501 21.3501 25.0002 21.3501C28.4502 21.3501 31.3002 23.9501 31.6502 27.4001L31.7002 27.7001L31.4502 27.8501C30.9002 28.2501 30.3502 28.3501 29.8001 28.3501C29.6002 28.3501 29.4002 28.3501 29.2002 28.3001C28.1002 28.2001 26.7002 27.6001 25.4502 27.1001L25.0501 27.0001C23.8001 26.4501 22.5501 25.9001 21.1002 25.7501C20.5501 25.7001 20.0501 25.7501 19.5501 25.8501L18.5501 26.0001L19.0001 25.1001ZM31.0002 31.1501C29.8502 33.4501 27.5502 34.9001 25.0002 34.9001C21.5501 34.9001 18.7001 32.3001 18.3501 28.8501L18.3001 28.5001L18.5501 28.3501C19.0501 28.0001 19.5001 27.8501 20.0501 27.8001C20.2501 27.8001 20.4501 27.8001 20.6501 27.8501H20.8001C21.9001 27.9501 23.3501 28.5501 24.5501 29.0501L24.9502 29.2501C26.2002 29.8001 27.4502 30.3501 28.9002 30.5001C29.4002 30.5501 29.9502 30.5001 30.4502 30.4001L31.4002 30.2501L31.0002 31.1501ZM28.1002 13.0001C27.5002 13.0001 27.0501 13.5001 27.0501 14.0501C27.0501 14.6501 27.5502 15.1001 28.1002 15.1001C28.6502 15.1001 29.1502 14.6001 29.1502 14.0501C29.2002 13.5001 28.7002 13.0001 28.1002 13.0001ZM28.1002 13.0001C27.5002 13.0001 27.0501 13.5001 27.0501 14.0501C27.0501 14.6501 27.5502 15.1001 28.1002 15.1001C28.6502 15.1001 29.1502 14.6001 29.1502 14.0501C29.2002 13.5001 28.7002 13.0001 28.1002 13.0001ZM25.0002 19.2501C20.1001 19.2501 16.1001 23.2501 16.1001 28.1501C16.1001 33.0501 20.1001 37.0001 25.0002 37.0001C29.9002 37.0001 33.9002 33.0001 33.9002 28.1001C33.9002 23.2001 29.9002 19.2501 25.0002 19.2501ZM19.0001 25.1001C20.1501 22.8001 22.4501 21.3501 25.0002 21.3501C28.4502 21.3501 31.3002 23.9501 31.6502 27.4001L31.7002 27.7001L31.4502 27.8501C30.9002 28.2501 30.3502 28.3501 29.8001 28.3501C29.6002 28.3501 29.4002 28.3501 29.2002 28.3001C28.1002 28.2001 26.7002 27.6001 25.4502 27.1001L25.0501 27.0001C23.8001 26.4501 22.5501 25.9001 21.1002 25.7501C20.5501 25.7001 20.0501 25.7501 19.5501 25.8501L18.5501 26.0001L19.0001 25.1001ZM31.0002 31.1501C29.8502 33.4501 27.5502 34.9001 25.0002 34.9001C21.5501 34.9001 18.7001 32.3001 18.3501 28.8501L18.3001 28.5001L18.5501 28.3501C19.0501 28.0001 19.5001 27.8501 20.0501 27.8001C20.2501 27.8001 20.4501 27.8001 20.6501 27.8501H20.8001C21.9001 27.9501 23.3501 28.5501 24.5501 29.0501L24.9502 29.2501C26.2002 29.8001 27.4502 30.3501 28.9002 30.5001C29.4002 30.5501 29.9502 30.5001 30.4502 30.4001L31.4002 30.2501L31.0002 31.1501ZM32.8002 13.0001C32.2002 13.0001 31.7502 13.5001 31.7502 14.0501C31.7502 14.6501 32.2502 15.1001 32.8002 15.1001C33.4002 15.1001 33.8502 14.6001 33.8502 14.0501C33.9002 13.5001 33.4002 13.0001 32.8002 13.0001ZM32.8002 13.0001C32.2002 13.0001 31.7502 13.5001 31.7502 14.0501C31.7502 14.6501 32.2502 15.1001 32.8002 15.1001C33.4002 15.1001 33.8502 14.6001 33.8502 14.0501C33.9002 13.5001 33.4002 13.0001 32.8002 13.0001ZM25.0002 19.2501C20.1001 19.2501 16.1001 23.2501 16.1001 28.1501C16.1001 33.0501 20.1001 37.0001 25.0002 37.0001C29.9002 37.0001 33.9002 33.0001 33.9002 28.1001C33.9002 23.2001 29.9002 19.2501 25.0002 19.2501ZM19.0001 25.1001C20.1501 22.8001 22.4501 21.3501 25.0002 21.3501C28.4502 21.3501 31.3002 23.9501 31.6502 27.4001L31.7002 27.7001L31.4502 27.8501C30.9002 28.2501 30.3502 28.3501 29.8001 28.3501C29.6002 28.3501 29.4002 28.3501 29.2002 28.3001C28.1002 28.2001 26.7002 27.6001 25.4502 27.1001L25.0501 27.0001C23.8001 26.4501 22.5501 25.9001 21.1002 25.7501C20.5501 25.7001 20.0501 25.7501 19.5501 25.8501L18.5501 26.0001L19.0001 25.1001ZM31.0002 31.1501C29.8502 33.4501 27.5502 34.9001 25.0002 34.9001C21.5501 34.9001 18.7001 32.3001 18.3501 28.8501L18.3001 28.5001L18.5501 28.3501C19.0501 28.0001 19.5001 27.8501 20.0501 27.8001C20.2501 27.8001 20.4501 27.8001 20.6501 27.8501H20.8001C21.9001 27.9501 23.3501 28.5501 24.5501 29.0501L24.9502 29.2501C26.2002 29.8001 27.4502 30.3501 28.9002 30.5001C29.4002 30.5501 29.9502 30.5001 30.4502 30.4001L31.4002 30.2501L31.0002 31.1501ZM28.1002 13.0001C27.5002 13.0001 27.0501 13.5001 27.0501 14.0501C27.0501 14.6501 27.5502 15.1001 28.1002 15.1001C28.6502 15.1001 29.1502 14.6001 29.1502 14.0501C29.2002 13.5001 28.7002 13.0001 28.1002 13.0001Z" fill="#876671"/>
</svg>
