<?xml version="1.0" encoding="utf-8"?>
<!-- Generator: Adobe Illustrator 25.0.0, SVG Export Plug-In . SVG Version: 6.00 Build 0)  -->
<svg version="1.1" id="Capa_1" xmlns="http://www.w3.org/2000/svg" xmlns:xlink="http://www.w3.org/1999/xlink" x="0px" y="0px"
	 viewBox="0 0 50 50" style="enable-background:new 0 0 50 50;" xml:space="preserve">
<style type="text/css">
	.st0{fill:#A52016;}
</style>
<path class="st0" d="M24.4,17.3L23.9,17l0.5-0.4c1.1-1.1,1.8-2.6,1.8-4.1c0-3.2-2.6-5.8-5.8-5.8s-5.8,2.6-5.8,5.8
	c0,1.6,0.6,3,1.8,4.1l0.4,0.4l-0.5,0.4c-1.9,1.3-3,3.4-3.2,5.6h2.1c0.2-2.6,2.4-4.7,5.2-4.7s4.9,2.1,5.1,4.7h2.1
	C27.5,20.7,26.2,18.6,24.4,17.3z M20.3,16.1c-2,0-3.6-1.6-3.6-3.6s1.6-3.6,3.6-3.6c2.1,0,3.7,1.6,3.7,3.6S22.4,16.1,20.3,16.1z
	 M36,19.2c-2.2,0-3.9,1.6-4.2,3.7H34c0.2-0.9,1-1.6,2-1.6s1.8,0.7,2,1.6h2.1C39.8,20.8,38.1,19.2,36,19.2z M6.8,25.5v2.1h1.6v15.6
	h33.4V27.6h1.5v-2.1H6.8z M39.5,41.1H10.4V27.6h29.1V41.1z"/>
</svg>
