<?xml version="1.0" encoding="utf-8"?>
<!-- Generator: Adobe Illustrator 25.0.0, SVG Export Plug-In . SVG Version: 6.00 Build 0)  -->
<svg version="1.1" id="Capa_1" xmlns="http://www.w3.org/2000/svg" xmlns:xlink="http://www.w3.org/1999/xlink" x="0px" y="0px"
	 viewBox="0 0 50 50" style="enable-background:new 0 0 50 50;" xml:space="preserve">
<style type="text/css">
	.st0{fill:#A52016;}
</style>
<path class="st0" d="M28.9,35.1v1.6h3.2v-1.6H28.9z M28.9,35.1v1.6h3.2v-1.6H28.9z M28.9,35.1v1.6h3.2v-1.6H28.9z M28.9,35.1v1.6
	h3.2v-1.6H28.9z M28.9,35.1v1.6h3.2v-1.6H28.9z M28.9,35.1v1.6h3.2v-1.6H28.9z M28.9,35.1v1.6h3.2v-1.6H28.9z M28.9,35.1v1.6h3.2
	v-1.6H28.9z M28.9,35.1v1.6h3.2v-1.6H28.9z M28.9,35.1v1.6h3.2v-1.6H28.9z M28.9,35.1v1.6h3.2v-1.6H28.9z M28.9,35.1v1.6h3.2v-1.6
	H28.9z M30.2,25.5l-1.1-0.6l1-0.8c2.2-1.6,3.5-4.2,3.5-6.9c0-1.1-0.2-2.1-0.5-3L33,14l0.6-3.1V7H16.4l0,4.1L17,14l-0.1,0.2
	c-0.3,0.9-0.5,1.8-0.5,3c0,2.8,1.3,5.3,3.5,6.9l1,0.8l-1.1,0.6c-4.1,2-6.6,6-6.6,10.5v7h23.5v-7C36.8,31.5,34.3,27.4,30.2,25.5z
	 M29.8,27l0.9,0.5l-4.9,4.9v-6.6l0.9,0.1C27.8,26.1,28.8,26.5,29.8,27z M18,8.6h14v2.5l-0.5,2.1h-13L18,10.9V8.6z M18,17.2
	c0-0.7,0-1.2,0.1-1.8l0.1-0.6h13.3l0.1,0.5c0.2,0.6,0.2,1.1,0.2,1.8c0,4-3,7-7,7S18,21.2,18,17.2z M20.2,27c1-0.5,2.1-0.9,3.1-1
	l0.9-0.2v6.5l-4.9-4.8L20.2,27z M35.1,41.4H14.9V36c0-2.5,0.9-5,2.6-6.8l0.5-0.6l7,7l0.6-0.6l6.3-6.4l0.6,0.6
	c1.6,1.9,2.6,4.3,2.6,6.8L35.1,41.4L35.1,41.4z M28.9,36.8h3.2v-1.6h-3.2V36.8z M28.9,35.1v1.6h3.2v-1.6H28.9z M28.9,35.1v1.6h3.2
	v-1.6H28.9z M28.9,35.1v1.6h3.2v-1.6H28.9z M28.9,35.1v1.6h3.2v-1.6H28.9z M28.9,35.1v1.6h3.2v-1.6H28.9z M28.9,35.1v1.6h3.2v-1.6
	H28.9z M28.9,35.1v1.6h3.2v-1.6H28.9z M28.9,35.1v1.6h3.2v-1.6H28.9z M28.9,35.1v1.6h3.2v-1.6H28.9z M28.9,35.1v1.6h3.2v-1.6H28.9z
	 M28.9,35.1v1.6h3.2v-1.6H28.9z M28.9,35.1v1.6h3.2v-1.6H28.9z"/>
</svg>
