<svg width="50" height="50" viewBox="0 0 50 50" fill="none" xmlns="http://www.w3.org/2000/svg">
<path d="M38 16.1001V41.1001H18.25V38.0001H16.15V43.2501H40.15V16.1001H38ZM40.1 11.4501V10.9501C40.1 8.65012 38.2 6.75012 35.9 6.75012H14.05C11.75 6.75012 9.85 8.65012 9.85 10.9501V11.4501H6.75V13.5501H9.85V35.4501H33.85V13.5501H43.25V11.4501H40.1ZM31.75 33.3001H12V29.2001H31.75V33.3001ZM32.35 9.55012C32.25 9.75012 32.15 9.95012 32.05 10.1501C31.9 10.4501 31.75 10.7001 31.75 10.9501V27.0501H12V10.9501C12 9.80012 12.9 8.90012 14.05 8.90012H32.6L32.35 9.55012ZM38 11.4501H33.9V10.9501C33.9 9.80012 34.8 8.90012 35.95 8.90012C37.1 8.90012 38 9.80012 38 10.9501V11.4501Z" fill="#876671"/>
</svg>
