<?xml version="1.0" encoding="utf-8"?>
<!-- Generator: Adobe Illustrator 25.0.0, SVG Export Plug-In . SVG Version: 6.00 Build 0)  -->
<svg version="1.1" id="Capa_1" xmlns="http://www.w3.org/2000/svg" xmlns:xlink="http://www.w3.org/1999/xlink" x="0px" y="0px"
	 viewBox="0 0 50 50" style="enable-background:new 0 0 50 50;" xml:space="preserve">
<style type="text/css">
	.st0{fill:#A52016;}
</style>
<path class="st0" d="M38,16.1v25H18.2V38h-2.1v5.2h24V16.1H38z M40.1,11.5V11c0-2.3-1.9-4.2-4.2-4.2H14.1c-2.3,0-4.2,1.9-4.2,4.2
	v0.5H6.8v2.1h3.1v21.9h24V13.6h9.4v-2.1H40.1z M31.8,33.3H12v-4.1h19.8V33.3z M32.3,9.6c-0.1,0.2-0.2,0.4-0.3,0.6
	c-0.1,0.3-0.3,0.6-0.3,0.8v16.1H12V11c0-1.1,0.9-2,2.1-2h18.5L32.3,9.6z M38,11.5h-4.1V11c0-1.1,0.9-2,2-2c1.1,0,2,0.9,2,2V11.5z"/>
</svg>
