<?xml version="1.0" encoding="utf-8"?>
<!-- Generator: Adobe Illustrator 25.0.0, SVG Export Plug-In . SVG Version: 6.00 Build 0)  -->
<svg version="1.1" id="Capa_1" xmlns="http://www.w3.org/2000/svg" xmlns:xlink="http://www.w3.org/1999/xlink" x="0px" y="0px"
	 viewBox="0 0 50 50" style="enable-background:new 0 0 50 50;" xml:space="preserve">
<style type="text/css">
	.st0{fill:#A52016;}
</style>
<path class="st0" d="M25,11.2c-7.4,0-14.4,2.9-19.7,8.2l1.8,1.9c4.8-4.8,11.1-7.4,17.9-7.4s13,2.7,17.8,7.4l1.9-1.9
	C39.4,14.1,32.4,11.2,25,11.2z M25,19c-5.4,0-10.4,2.1-14.2,5.9l1.8,1.9c3.3-3.3,7.6-5.1,12.3-5.1s9,1.8,12.3,5.1l1.8-1.8
	C35.3,21.1,30.3,19,25,19z M25,26.8c-3.2,0-6.3,1.3-8.7,3.6l1.9,1.9c1.9-1.8,4.2-2.8,6.8-2.8s4.9,1,6.8,2.8l1.8-1.9
	C31.3,28.1,28.2,26.8,25,26.8z M25,34.6c-1.2,0-2.2,0.5-3.1,1.3L25,39l3.1-3.1C27.2,35.1,26.1,34.6,25,34.6z"/>
</svg>
